<?xml version="1.0" encoding="UTF-8" standalone="no"?>
<svg xmlns="http://www.w3.org/2000/svg"
     xmlns:xlink="http://www.w3.org/1999/xlink"
     width="560px" height="417px" viewBox="0 0 560 417">
<title>gl2ps_renderer figure</title>
<desc>
Creator: GL2PS 1.3.9, (C) 1999-2015 C. Geuzaine
For: Octave
CreationDate: Thu Dec 21 22:19:55 2017
</desc>
<defs>
</defs>
<polygon fill="#ffffff" points="0,0 560,0 560,417 0,417"/>
<g shape-rendering="crispEdges">
<polygon fill="#ffffff" points="0,417 560,417 560,0 0,0"/>
<clipPath id="cp00560417">
  <polygon points="0,417 560,417 560,0 0,0"/>
</clipPath>
<g clip-path="url(#cp00560417)">
<polygon fill="#ffffff" points="521.277,32.4023 74.8828,32.4023 74.8828,384.477"/>
<polygon fill="#ffffff" points="74.8828,384.477 521.277,384.477 521.277,32.4023"/>
<polyline fill="none" stroke="#262626" stroke-width="0.5" points="74.8828,384.477 74.8828,380.012"/>
<polyline fill="none" stroke="#262626" stroke-width="0.5" points="74.8828,32.4023 74.8828,36.8672"/>
<polyline fill="none" stroke="#262626" stroke-width="0.5" points="138.652,384.477 138.652,380.012"/>
<polyline fill="none" stroke="#262626" stroke-width="0.5" points="138.652,32.4023 138.652,36.8672"/>
<polyline fill="none" stroke="#262626" stroke-width="0.5" points="202.426,384.477 202.426,380.012"/>
<polyline fill="none" stroke="#262626" stroke-width="0.5" points="202.426,32.4023 202.426,36.8672"/>
<polyline fill="none" stroke="#262626" stroke-width="0.5" points="266.195,384.477 266.195,380.012"/>
<polyline fill="none" stroke="#262626" stroke-width="0.5" points="266.195,32.4023 266.195,36.8672"/>
<polyline fill="none" stroke="#262626" stroke-width="0.5" points="329.965,384.477 329.965,380.012"/>
<polyline fill="none" stroke="#262626" stroke-width="0.5" points="329.965,32.4023 329.965,36.8672"/>
<polyline fill="none" stroke="#262626" stroke-width="0.5" points="393.734,384.477 393.734,380.012"/>
<polyline fill="none" stroke="#262626" stroke-width="0.5" points="393.734,32.4023 393.734,36.8672"/>
<polyline fill="none" stroke="#262626" stroke-width="0.5" points="457.508,384.477 457.508,380.012"/>
<polyline fill="none" stroke="#262626" stroke-width="0.5" points="457.508,32.4023 457.508,36.8672"/>
<polyline fill="none" stroke="#262626" stroke-width="0.5" points="521.277,384.477 521.277,380.012"/>
<polyline fill="none" stroke="#262626" stroke-width="0.5" points="521.277,32.4023 521.277,36.8672"/>
<text fill="#262626" x="74.8828" y="389.48" font-size="10" text-anchor="middle" baseline-shift="-10" font-family="Helvetica">0</text>
<text fill="#262626" x="138.652" y="389.48" font-size="10" text-anchor="middle" baseline-shift="-10" font-family="Helvetica">1</text>
<text fill="#262626" x="202.426" y="389.48" font-size="10" text-anchor="middle" baseline-shift="-10" font-family="Helvetica">2</text>
<text fill="#262626" x="266.195" y="389.48" font-size="10" text-anchor="middle" baseline-shift="-10" font-family="Helvetica">3</text>
<text fill="#262626" x="329.965" y="389.48" font-size="10" text-anchor="middle" baseline-shift="-10" font-family="Helvetica">4</text>
<text fill="#262626" x="393.734" y="389.48" font-size="10" text-anchor="middle" baseline-shift="-10" font-family="Helvetica">5</text>
<text fill="#262626" x="457.508" y="389.48" font-size="10" text-anchor="middle" baseline-shift="-10" font-family="Helvetica">6</text>
<text fill="#262626" x="521.277" y="389.48" font-size="10" text-anchor="middle" baseline-shift="-10" font-family="Helvetica">7</text>
<polyline fill="none" stroke="#262626" stroke-width="0.5" points="74.8828,384.477 79.3516,384.477"/>
<polyline fill="none" stroke="#262626" stroke-width="0.5" points="521.277,384.477 516.809,384.477"/>
<polyline fill="none" stroke="#262626" stroke-width="0.5" points="74.8828,325.797 79.3516,325.797"/>
<polyline fill="none" stroke="#262626" stroke-width="0.5" points="521.277,325.797 516.809,325.797"/>
<polyline fill="none" stroke="#262626" stroke-width="0.5" points="74.8828,267.117 79.3516,267.117"/>
<polyline fill="none" stroke="#262626" stroke-width="0.5" points="521.277,267.117 516.809,267.117"/>
<polyline fill="none" stroke="#262626" stroke-width="0.5" points="74.8828,208.441 79.3516,208.441"/>
<polyline fill="none" stroke="#262626" stroke-width="0.5" points="521.277,208.441 516.809,208.441"/>
<polyline fill="none" stroke="#262626" stroke-width="0.5" points="74.8828,149.762 79.3516,149.762"/>
<polyline fill="none" stroke="#262626" stroke-width="0.5" points="521.277,149.762 516.809,149.762"/>
<polyline fill="none" stroke="#262626" stroke-width="0.5" points="74.8828,91.082 79.3516,91.082"/>
<polyline fill="none" stroke="#262626" stroke-width="0.5" points="521.277,91.082 516.809,91.082"/>
<polyline fill="none" stroke="#262626" stroke-width="0.5" points="74.8828,32.4023 79.3516,32.4023"/>
<polyline fill="none" stroke="#262626" stroke-width="0.5" points="521.277,32.4023 516.809,32.4023"/>
<text fill="#262626" x="69.8789" y="384.48" font-size="10" text-anchor="end" baseline-shift="-5" font-family="Helvetica">-6</text>
<text fill="#262626" x="69.8789" y="325.801" font-size="10" text-anchor="end" baseline-shift="-5" font-family="Helvetica">-4</text>
<text fill="#262626" x="69.8789" y="267.121" font-size="10" text-anchor="end" baseline-shift="-5" font-family="Helvetica">-2</text>
<text fill="#262626" x="69.8789" y="208.445" font-size="10" text-anchor="end" baseline-shift="-5" font-family="Helvetica">0</text>
<text fill="#262626" x="69.8789" y="149.766" font-size="10" text-anchor="end" baseline-shift="-5" font-family="Helvetica">2</text>
<text fill="#262626" x="69.8789" y="91.0859" font-size="10" text-anchor="end" baseline-shift="-5" font-family="Helvetica">4</text>
<text fill="#262626" x="69.8789" y="32.4063" font-size="10" text-anchor="end" baseline-shift="-5" font-family="Helvetica">6</text>
<polyline fill="none" stroke="#262626" stroke-width="0.5" stroke-dasharray="16,0" points="74.8828,384.477 521.277,384.477"/>
<polyline fill="none" stroke="#262626" stroke-width="0.5" stroke-dasharray="16,0" points="74.8828,32.4023 521.277,32.4023"/>
<polyline fill="none" stroke="#262626" stroke-width="0.5" stroke-dasharray="16,0" points="74.8828,384.477 74.8828,32.4023"/>
<polyline fill="none" stroke="#262626" stroke-width="0.5" stroke-dasharray="16,0" points="521.277,384.477 521.277,32.4023"/>
<polyline fill="none" stroke="#ff0000" stroke-width="0.5" points="74.8828,171.164 75.2852,227.426 75.6836,233.805 76.0859,183.789 76.4844,172.457 76.8867,181.656 77.2852,223.809 77.6875,195.066 78.0898,205.969 78.4883,180.609 78.8906,191.582 79.2891,172.168 79.6914,219.238 80.0898,283.641 80.4922,260.293 80.8945,127.98 81.293,190.977 81.6953,168.43 82.0938,197.086 82.4961,198.383 82.8984,191.223 83.2969,264.043 83.6992,168.922 84.0977,222.898 84.5,134.242 84.8984,181.215 85.3008,219.086 85.7031,152.824 86.1016,209.828 86.5039,230.703 86.9023,193.691 87.3047,222.43 87.7031,274.211 88.1055,217.176 88.5078,227.199 88.9063,223.039 89.3086,233.465 89.707,193.176 90.1094,231.543 90.5078,234.301 90.9102,184.414 91.3125,224.695 91.7109,228.727 92.1133,275.246 92.5117,178.535 92.9141,203.738 93.3125,239.609 93.7148,243.176 94.1172,196.305 94.5156,232.773 94.918,238.867 95.3164,280.152 95.7188,247.375 96.1172,220.141 96.5195,295.406 96.9219,220.734 97.3203,199.527 97.7227,279.199 98.1211,235.141 98.5234,212.762 98.9219,169.973 99.3242,230.949 99.7266,274.746 100.125,235.25 100.527,274.578 100.926,247.035 101.328,266.332 101.73,183.859 102.129,264.02 102.531,275.293 102.93,288.688 103.332,225.992 103.73,247.047 104.133,241.484 104.535,266.313 104.934,237.121 105.336,254.613 105.734,223.922 106.137,256.195 106.535,228.391 106.938,268.047 107.34,245.309 107.738,281.797 108.141,241.324 108.539,215.844 108.941,270.32 109.34,260.98 109.742,196.039 110.145,298.453 110.543,230.023 110.945,209.551 111.344,266.625 111.746,140.695 112.145,183.262 112.547,228.941 112.949,163.824 113.348,235.984 113.75,229.609 114.148,252.512 114.551,187.242 114.949,218.613 115.352,192.117 115.754,238.098 116.152,221 116.555,189.977 116.953,168.059 117.355,242.32 117.754,207.949 118.156,189.738 118.559,238.203 118.957,178.57 119.359,160.672 119.758,179.332 120.16,171.844 120.563,174.934 120.961,178.301 121.363,164.344 121.762,156.773 122.164,253.719 122.563,188.223 122.965,222.105 123.367,191.078 123.766,143.469 124.168,195.309 124.566,221.816 124.969,180.641 125.367,185.355 125.77,208.137 126.172,183.914 126.57,172.297 126.973,202.301 127.371,157.043 127.773,178.457 128.172,131.977 128.574,177.547 128.977,201.848 129.375,202.758 129.777,124.555 130.176,181.563 130.578,144.297 130.977,196 131.379,203.344 131.781,115.93 132.18,144.195 132.582,171.762 132.98,155.898 133.383,129.172 133.781,181.699 134.184,175.367 134.586,165.035 134.984,227.438 135.387,158.652 135.785,141.613 136.188,145.113 136.59,171.16 136.988,127.871 137.391,197.98 137.789,187.633 138.191,171.098 138.59,200.203 138.992,173.168 139.395,221.426 139.793,203.32 140.195,162.242 140.594,211.48 140.996,198.945 141.395,169.078 141.797,185.102 142.199,175.793 142.598,212.168 143,172.035 143.398,158.949 143.801,146.398 144.199,149.328 144.602,201.945 145.004,180.137 145.402,259.551 145.805,190.785 146.203,188.668 146.605,233.223 147.004,218.352 147.406,174.234 147.809,223.746 148.207,207.469 148.609,198.512 149.008,182.453 149.41,241.211 149.809,174.809 150.211,161.086 150.613,215.629 151.012,196.465 151.414,175.168 151.813,205.965 152.215,252.293 152.613,247.684 153.016,215.535 153.418,204.25 153.816,171.648 154.219,211.363 154.617,195.141 155.02,213.242 155.422,238.09 155.82,156.723 156.223,253.828 156.621,237.25 157.023,257.945 157.422,202.922 157.824,194.926 158.227,165.246 158.625,216.641 159.027,212.117 159.426,217.129 159.828,191.922 160.227,218.074 160.629,203.676 161.031,219.227 161.43,199.258 161.832,261.684 162.23,246.07 162.633,206.418 163.031,240.438 163.434,231.02 163.836,178.453 164.234,230.398 164.637,213.402 165.035,223.391 165.438,246.57 165.836,173.246 166.238,275.414 166.641,270.066 167.039,242.914 167.441,226.172 167.84,218.75 168.242,223.504 168.641,223.898 169.043,220.18 169.445,175.91 169.844,210.586 170.246,225.492 170.645,242.191 171.047,225.523 171.445,230.379 171.848,226.719 172.25,185.523 172.648,238.566 173.051,211.379 173.449,210.91 173.852,177.055 174.254,190.988 174.652,220.5 175.055,252.672 175.453,235.844 175.855,238.625 176.254,244.754 176.656,221.43 177.059,221.523 177.457,220.316 177.859,238.098 178.258,240.523 178.66,185.566 179.059,159.59 179.461,215.219 179.863,223.352 180.262,230.758 180.664,200.672 181.063,150.379 181.465,186.168 181.863,173.582 182.266,152.223 182.668,206.531 183.066,236.586 183.469,179.059 183.867,189.332 184.27,171.707 184.668,139.18 185.07,233.184 185.473,187.93 185.871,163.496 186.273,156.078 186.672,164.805 187.074,157.219 187.473,192.973 187.875,140.105 188.277,141.953 188.676,200.043 189.078,166.16 189.477,188.574 189.879,201.508 190.281,201.305 190.68,164.402 191.082,184.027 191.48,220.957 191.883,193.73 192.281,112.488 192.684,144.25 193.086,183.422 193.484,208.918 193.887,208.367 194.285,241.574 194.688,178.301 195.086,170.617 195.488,185.848 195.891,193.355 196.289,157.305 196.691,231.352 197.09,207.141 197.492,220.625 197.891,183.301 198.293,208.617 198.695,193.207 199.094,251.367 199.496,224.914 199.895,212.941 200.297,131.07 200.695,212.156 201.098,226.25 201.5,230.922 201.898,213.262 202.301,192.93 202.699,229.129 203.102,253.465 203.5,161.316 203.902,228.813 204.305,242.613 204.703,191.711 205.105,186.453 205.504,216.523 205.906,245.043 206.305,273.227 206.707,259.813 207.109,230.977 207.508,267.172 207.91,232.199 208.309,250.629 208.711,213.453 209.113,239.848 209.512,244.625 209.914,191.484 210.313,173.746 210.715,221.363 211.113,229.254 211.516,234.695 211.918,204.223 212.316,246.52 212.719,200.797 213.117,273.965 213.52,261.488 213.918,242.707 214.32,236.816 214.723,224.383 215.121,291.133 215.523,239.125 215.922,312.156 216.324,267.203 216.723,240.648 217.125,243.66 217.527,200.789 217.926,280.863 218.328,213.691 218.727,238.887 219.129,262.148 219.527,265.918 219.93,250.945 220.332,248.184 220.73,235.719 221.133,247.883 221.531,260.41 221.934,251.66 222.332,219.703 222.734,252.398 223.137,206.922 223.535,243.563 223.938,250.5 224.336,267.844 224.738,258 225.137,232.512 225.539,148.781 225.941,202.727 226.34,235.066 226.742,288.902 227.141,218.137 227.543,223.672 227.945,226.242 228.344,158.039 228.746,181.664 229.145,270.891 229.547,186.738 229.945,229.566 230.348,236.711 230.75,272.727 231.148,232.688 231.551,235.063 231.949,263.965 232.352,225.922 232.75,225.219 233.152,175.523 233.555,205.125 233.953,252.094 234.355,215.789 234.754,268.977 235.156,172.059 235.555,206.371 235.957,159.035 236.359,191.586 236.758,200.254 237.16,230.91 237.559,205.75 237.961,161.859 238.359,204.055 238.762,248.207 239.164,193.516 239.563,180.082 239.965,265.625 240.363,200.961 240.766,195.297 241.164,173.691 241.566,181.973 241.969,221.313 242.367,162.414 242.77,172.77 243.168,169.746 243.57,175.211 243.973,160.914 244.371,180.617 244.773,157.816 245.172,138.691 245.574,196.836 245.973,183.695 246.375,160.277 246.777,165.359 247.176,130.754 247.578,135.207 247.977,146.758 248.379,161.621 248.777,148.844 249.18,151.855 249.582,164.508 249.98,191.309 250.383,189.645 250.781,228.852 251.184,152.137 251.582,162.934 251.984,210.316 252.387,214.855 252.785,182.285 253.188,179.961 253.586,179.043 253.988,184.742 254.387,171.387 254.789,179.434 255.191,157.645 255.59,187.926 255.992,159.43 256.391,139.977 256.793,157.059 257.191,239.52 257.594,169.184 257.996,213.902 258.395,194.09 258.797,200.664 259.195,195.391 259.598,187.117 259.996,168.117 260.398,155.48 260.801,210.41 261.199,209.832 261.602,273.68 262,50.6094 262.402,212.023 262.805,227.195 263.203,227.434 263.605,203.551 264.004,181 264.406,212.656 264.805,222.973 265.207,213.148 265.609,210.492 266.008,161.402 266.41,192.512 266.809,204.574 267.211,210.352 267.609,200.129 268.012,253.551 268.414,220.465 268.813,220.852 269.215,195.559 269.613,171.379 270.016,138.457 270.414,194.34 270.816,224.051 271.219,148.098 271.617,247.805 272.02,208.727 272.418,219.773 272.82,215.359 273.219,206.5 273.621,239.816 274.023,225.84 274.422,235.801 274.824,213.285 275.223,253.863 275.625,254.703 276.023,137.563 276.426,151.117 276.828,212.129 277.227,227.438 277.629,215.453 278.027,212.176 278.43,225.082 278.828,187.215 279.23,211.934 279.633,227.121 280.031,191.152 280.434,204.895 280.832,200.125 281.234,170.215 281.637,171.715 282.035,210.531 282.438,166.262 282.836,200.203 283.238,207.84 283.637,210.402 284.039,254.875 284.441,212.168 284.84,231.426 285.242,208.387 285.641,184.539 286.043,215.258 286.441,157.25 286.844,176.555 287.246,156.996 287.645,193.25 288.047,130.363 288.445,216.414 288.848,179.855 289.246,170.234 289.648,143.141 290.051,183.457 290.449,179.641 290.852,173.105 291.25,122.586 291.652,170.195 292.051,211.617 292.453,173.543 292.855,196.035 293.254,118.352 293.656,136.773 294.055,109.832 294.457,112.801 294.855,80.5195 295.258,167.938 295.66,102.211 296.059,155.738 296.461,77.5898 296.859,164.57 297.262,123.621 297.664,178.641 298.063,93.7695 298.465,155.215 298.863,121.113 299.266,125.102 299.664,146.605 300.066,188.473 300.469,169.09 300.867,156.48 301.27,105.566 301.668,183.07 302.07,74.5664 302.469,117.395 302.871,115.57 303.273,129.336 303.672,159.977 304.074,97.5273 304.473,66.8477 304.875,121.867 305.273,122.598 305.676,100.207 306.078,130.168 306.477,138.254 306.879,116.262 307.277,155.113 307.68,147.785 308.078,113.164 308.48,162.117 308.883,150.641 309.281,106.688 309.684,115.203 310.082,140.328 310.484,80.0078 310.883,184.879 311.285,116.414 311.688,145.52 312.086,138.273 312.488,169.617 312.887,81.9844 313.289,127.047 313.688,119.633 314.09,129.148 314.492,176.172 314.891,110.879 315.293,184.836 315.691,164.309 316.094,156.68 316.496,138.863 316.895,214.719 317.297,174.852 317.695,179.129 318.098,90.8203 318.496,128.391 318.898,152.246 319.301,180.129 319.699,124.961 320.102,151.156 320.5,199.848 320.902,196.074 321.301,150.051 321.703,172.648 322.105,187.754 322.504,189.91 322.906,142.488 323.305,148.363 323.707,180.926 324.105,214.234 324.508,189 324.91,151.348 325.309,198.059 325.711,213.477 326.109,220.117 326.512,184.934 326.91,186.742 327.313,177.34 327.715,231.793 328.113,158.066 328.516,189.074 328.914,168.895 329.316,210.945 329.715,192.453 330.117,161.488 330.52,199.25 330.918,144.219 331.32,190.949 331.719,206.715 332.121,140.305 332.52,151.926 332.922,170.426 333.324,199.469 333.723,222.016 334.125,235.441 334.523,198.078 334.926,191.297 335.328,214.297 335.727,225.531 336.129,232.961 336.527,202.02 336.93,197.426 337.328,107.125 337.73,156.352 338.133,187.094 338.531,220.41 338.934,246.32 339.332,143.188 339.734,172.293 340.133,208.488 340.535,239.004 340.938,164.309 341.336,190.719 341.738,148.672 342.137,187.625 342.539,143.777 342.938,183.102 343.34,138.164 343.742,201.449 344.141,186.516 344.543,190.926 344.941,192.82 345.344,154.512 345.742,201.352 346.145,138.98 346.547,171.313 346.945,135.461 347.348,179.695 347.746,204.57 348.148,164.598 348.547,183.117 348.949,143.488 349.352,190.535 349.75,175.664 350.152,183.477 350.551,184.898 350.953,242.488 351.352,224.891 351.754,153.66 352.156,212.68 352.555,210.453 352.957,224.34 353.355,160.527 353.758,173.176 354.16,144.496 354.559,189.969 354.961,113.117 355.359,190.344 355.762,119.688 356.16,158.223 356.563,202.211 356.965,93.9023 357.363,193.27 357.766,179.586 358.164,253.008 358.566,142.242 358.965,183.68 359.367,171.031 359.77,159.504 360.168,145.703 360.57,162.992 360.969,146.84 361.371,183.617 361.77,128.215 362.172,148.285 362.574,170.949 362.973,148.512 363.375,207.906 363.773,190.918 364.176,149.66 364.574,155.789 364.977,166.418 365.379,155.344 365.777,139.313 366.18,167.523 366.578,190.223 366.98,167.027 367.379,179.762 367.781,172.102 368.184,191.289 368.582,134.957 368.984,172.637 369.383,182.934 369.785,250.762 370.188,149.977 370.586,208.18 370.988,155.758 371.387,160.668 371.789,191.355 372.188,181.371 372.59,170.52 372.992,203.906 373.391,189.918 373.793,225.234 374.191,215.473 374.594,162.297 374.992,159.703 375.395,253.949 375.797,228.219 376.195,219.727 376.598,170.348 376.996,195.086 377.398,244.098 377.797,176.582 378.199,177.043 378.602,225.238 379,236.379 379.402,200.57 379.801,241.566 380.203,245.988 380.602,240.688 381.004,235.594 381.406,234.359 381.805,229.094 382.207,274.898 382.605,192.094 383.008,232.121 383.406,199.742 383.809,283.563 384.211,237.941 384.609,242.164 385.012,261.496 385.41,265.398 385.813,228.02 386.211,248.68 386.613,262.617 387.016,279.594 387.414,236.93 387.816,255.195 388.215,283.777 388.617,191.246 389.02,273.996 389.418,242.152 389.82,245.113 390.219,273.773 390.621,219.887 391.02,306.746 391.422,246.258 391.824,300.117 392.223,246.602 392.625,260.566 393.023,244.07 393.426,308.309 393.824,271.523 394.227,239.563 394.629,269.215 395.027,233.98 395.43,207.352 395.828,228.711 396.23,277.266 396.629,277.539 397.031,295.895 397.434,235.945 397.832,322.426 398.234,278.195 398.633,287.539 399.035,257.727 399.434,267.453 399.836,238.992 400.238,276.563 400.637,291.355 401.039,264.559 401.438,324.43 401.84,249.609 402.238,265.781 402.641,244.844 403.043,211.367 403.441,227.98 403.844,267.055 404.242,265.129 404.645,255.465 405.047,229.066 405.445,236.246 405.848,247.633 406.246,254.355 406.648,227.902 407.047,271.629 407.449,250.219 407.852,241.297 408.25,282.535 408.652,267.391 409.051,229.707 409.453,190.477 409.852,198.523 410.254,237.59 410.656,222.512 411.055,319.406 411.457,271.902 411.855,228.617 412.258,237.207 412.656,163.34 413.059,262.621 413.461,221.117 413.859,194.602 414.262,243.902 414.66,236.535 415.063,264.555 415.461,274.762 415.863,263.293 416.266,250.066 416.664,239.406 417.066,236.371 417.465,205.324 417.867,251.23 418.266,162.996 418.668,306.883 419.07,181.973 419.469,204.008 419.871,232.734 420.27,266.66 420.672,234.906 421.07,227.766 421.473,204.852 421.875,241.375 422.273,260.5 422.676,230.16 423.074,161.684 423.477,207.387 423.879,244.582 424.277,193.563 424.68,215.863 425.078,213.93 425.48,194.684 425.879,236.758 426.281,239.641 426.684,227.441 427.082,244.691 427.484,188.406 427.883,237.531 428.285,213.059 428.684,238.957 429.086,264.324 429.488,254.551 429.887,251.348 430.289,287.859 430.688,229.715 431.09,215.613 431.488,282.293 431.891,226.211 432.293,284.48 432.691,245.34 433.094,245.344 433.492,312.375 433.895,285.898 434.293,297.641 434.695,317.418 435.098,325.129 435.496,292.715 435.898,272.262 436.297,293.035 436.699,274.746 437.098,275.578 437.5,229.449 437.902,291.617 438.301,319.852 438.703,304.176 439.102,280.172 439.504,228.418 439.902,245.965 440.305,304.195 440.707,244.637 441.105,302.027 441.508,290.297 441.906,276.609 442.309,304.957 442.711,305.414 443.109,341.633 443.512,283.375 443.91,258.352 444.313,311.344 444.711,265.367 445.113,339 445.516,280.531 445.914,292.535 446.316,292.379 446.715,255.238 447.117,290.406 447.516,332.797 447.918,295.883 448.32,226.543 448.719,332.074 449.121,310.105 449.52,257.117 449.922,265.145 450.32,253.168 450.723,228.676 451.125,316.918 451.523,278.422 451.926,288.891 452.324,263.41 452.727,239.984 453.125,273.43 453.527,255.57 453.93,250.156 454.328,280.672 454.73,272.383 455.129,244.367 455.531,312.133 455.93,237.5 456.332,265.898 456.734,308.598 457.133,270.137 457.535,252.988 457.934,270.449 458.336,294.23 458.734,270.785 459.137,245.703 459.539,222.914 459.938,255.539 460.34,269.547 460.738,261.492 461.141,289.336 461.543,289.297 461.941,270.816 462.344,218.559 462.742,201.785 463.145,203.078 463.543,251.375 463.945,291.5 464.348,231.754 464.746,234.637 465.148,230.285 465.547,237.445 465.949,267.668 466.348,253.563 466.75,228.102 467.152,198.715 467.551,214.066 467.953,182.457 468.352,228.781 468.754,223.973 469.152,215.254 469.555,187.695 469.957,222.488 470.355,199.719 470.758,196.484 471.156,143.664 471.559,245.281 471.957,220.457 472.359,190.824 472.762,240.168 473.16,247.254 473.563,169.293 473.961,221.375 474.363,221.402 474.762,233.715 475.164,208.859"/>
<polyline fill="none" stroke="#0000ff" stroke-width="0.5" points="74.8828,205.758 75.2852,205.301 75.6836,204.902 76.0859,204.563 76.4844,204.277 76.8867,204.051 77.2852,203.883 77.6875,203.77 78.0898,203.715 78.4883,203.715 78.8906,203.77 79.2891,203.879 79.6914,204.039 80.0898,204.254 80.4922,204.52 80.8945,204.836 81.293,205.199 81.6953,205.613 82.0938,206.07 82.4961,206.57 82.8984,207.113 83.2969,207.699 83.6992,208.32 84.0977,208.98 84.5,209.676 84.8984,210.406 85.3008,211.164 85.7031,211.949 86.1016,212.766 86.5039,213.602 86.9023,214.461 87.3047,215.34 87.7031,216.234 88.1055,217.145 88.5078,218.066 88.9063,218.996 89.3086,219.938 89.707,220.879 90.1094,221.824 90.5078,222.77 90.9102,223.711 91.3125,224.648 91.7109,225.574 92.1133,226.492 92.5117,227.398 92.9141,228.285 93.3125,229.16 93.7148,230.012 94.1172,230.84 94.5156,231.645 94.918,232.422 95.3164,233.168 95.7188,233.887 96.1172,234.57 96.5195,235.219 96.9219,235.828 97.3203,236.402 97.7227,236.934 98.1211,237.422 98.5234,237.867 98.9219,238.27 99.3242,238.621 99.7266,238.926 100.125,239.184 100.527,239.387 100.926,239.543 101.328,239.645 101.73,239.691 102.129,239.688 102.531,239.625 102.93,239.512 103.332,239.344 103.73,239.117 104.133,238.836 104.535,238.5 104.934,238.105 105.336,237.66 105.734,237.156 106.137,236.598 106.535,235.988 106.938,235.32 107.34,234.605 107.738,233.836 108.141,233.016 108.539,232.145 108.941,231.227 109.34,230.258 109.742,229.246 110.145,228.191 110.543,227.09 110.945,225.949 111.344,224.77 111.746,223.555 112.145,222.301 112.547,221.012 112.949,219.691 113.348,218.344 113.75,216.965 114.148,215.563 114.551,214.137 114.949,212.691 115.352,211.23 115.754,209.75 116.152,208.254 116.555,206.75 116.953,205.238 117.355,203.719 117.754,202.199 118.156,200.676 118.559,199.156 118.957,197.637 119.359,196.129 119.758,194.629 120.16,193.145 120.563,191.672 120.961,190.215 121.363,188.781 121.762,187.367 122.164,185.977 122.563,184.617 122.965,183.285 123.367,181.984 123.766,180.719 124.168,179.488 124.566,178.297 124.969,177.145 125.367,176.039 125.77,174.973 126.172,173.953 126.57,172.984 126.973,172.063 127.371,171.191 127.773,170.375 128.172,169.609 128.574,168.902 128.977,168.25 129.375,167.656 129.777,167.121 130.176,166.645 130.578,166.227 130.977,165.871 131.379,165.578 131.781,165.344 132.18,165.176 132.582,165.066 132.98,165.023 133.383,165.039 133.781,165.117 134.184,165.262 134.586,165.465 134.984,165.727 135.387,166.051 135.785,166.438 136.188,166.883 136.59,167.383 136.988,167.945 137.391,168.559 137.789,169.23 138.191,169.957 138.59,170.73 138.992,171.559 139.395,172.438 139.793,173.359 140.195,174.328 140.594,175.344 140.996,176.398 141.395,177.492 141.797,178.625 142.199,179.793 142.598,180.996 143,182.227 143.398,183.488 143.801,184.777 144.199,186.09 144.602,187.422 145.004,188.773 145.402,190.145 145.805,191.527 146.203,192.922 146.605,194.324 147.004,195.734 147.406,197.148 147.809,198.563 148.207,199.973 148.609,201.383 149.008,202.785 149.41,204.176 149.809,205.555 150.211,206.922 150.613,208.273 151.012,209.602 151.414,210.91 151.813,212.195 152.215,213.453 152.613,214.68 153.016,215.879 153.418,217.043 153.816,218.176 154.219,219.27 154.617,220.324 155.02,221.336 155.422,222.309 155.82,223.234 156.223,224.117 156.621,224.953 157.023,225.738 157.422,226.477 157.824,227.16 158.227,227.793 158.625,228.375 159.027,228.902 159.426,229.375 159.828,229.789 160.227,230.152 160.629,230.457 161.031,230.703 161.43,230.895 161.832,231.031 162.23,231.109 162.633,231.129 163.031,231.094 163.434,231 163.836,230.855 164.234,230.652 164.637,230.395 165.035,230.086 165.438,229.723 165.836,229.309 166.238,228.84 166.641,228.328 167.039,227.766 167.441,227.156 167.84,226.5 168.242,225.801 168.641,225.063 169.043,224.281 169.445,223.465 169.844,222.609 170.246,221.719 170.645,220.797 171.047,219.844 171.445,218.863 171.848,217.859 172.25,216.828 172.648,215.777 173.051,214.707 173.449,213.617 173.852,212.52 174.254,211.406 174.652,210.281 175.055,209.152 175.453,208.02 175.855,206.887 176.254,205.754 176.656,204.621 177.059,203.496 177.457,202.383 177.859,201.277 178.258,200.184 178.66,199.105 179.059,198.051 179.461,197.012 179.863,195.996 180.262,195.008 180.664,194.043 181.063,193.113 181.465,192.211 181.863,191.344 182.266,190.512 182.668,189.719 183.066,188.961 183.469,188.25 183.867,187.578 184.27,186.953 184.668,186.375 185.07,185.84 185.473,185.359 185.871,184.926 186.273,184.543 186.672,184.211 187.074,183.934 187.473,183.711 187.875,183.543 188.277,183.43 188.676,183.371 189.078,183.371 189.477,183.426 189.879,183.539 190.281,183.707 190.68,183.93 191.082,184.211 191.48,184.551 191.883,184.941 192.281,185.391 192.684,185.895 193.086,186.449 193.484,187.059 193.887,187.723 194.285,188.434 194.688,189.195 195.086,190.008 195.488,190.867 195.891,191.77 196.289,192.719 196.691,193.707 197.09,194.742 197.492,195.813 197.891,196.918 198.293,198.063 198.695,199.238 199.094,200.445 199.496,201.684 199.895,202.945 200.297,204.23 200.695,205.543 201.098,206.871 201.5,208.219 201.898,209.578 202.301,210.953 202.699,212.336 203.102,213.727 203.5,215.121 203.902,216.52 204.305,217.914 204.703,219.309 205.105,220.695 205.504,222.074 205.906,223.441 206.305,224.797 206.707,226.137 207.109,227.457 207.508,228.754 207.91,230.031 208.309,231.281 208.711,232.504 209.113,233.691 209.512,234.852 209.914,235.973 210.313,237.059 210.715,238.105 211.113,239.109 211.516,240.07 211.918,240.984 212.316,241.852 212.719,242.672 213.117,243.441 213.52,244.16 213.918,244.824 214.32,245.434 214.723,245.988 215.121,246.484 215.523,246.922 215.922,247.305 216.324,247.625 216.723,247.883 217.125,248.082 217.527,248.219 217.926,248.293 218.328,248.305 218.727,248.254 219.129,248.145 219.527,247.969 219.93,247.73 220.332,247.434 220.73,247.074 221.133,246.652 221.531,246.172 221.934,245.633 222.332,245.031 222.734,244.375 223.137,243.664 223.535,242.895 223.938,242.07 224.336,241.195 224.738,240.27 225.137,239.293 225.539,238.266 225.941,237.195 226.34,236.082 226.742,234.922 227.141,233.723 227.543,232.484 227.945,231.211 228.344,229.902 228.746,228.563 229.145,227.195 229.547,225.797 229.945,224.375 230.348,222.93 230.75,221.465 231.148,219.98 231.551,218.48 231.949,216.973 232.352,215.449 232.75,213.922 233.152,212.391 233.555,210.855 233.953,209.32 234.355,207.789 234.754,206.262 235.156,204.742 235.555,203.238 235.957,201.742 236.359,200.262 236.758,198.801 237.16,197.363 237.559,195.945 237.961,194.551 238.359,193.188 238.762,191.852 239.164,190.547 239.563,189.277 239.965,188.043 240.363,186.848 240.766,185.691 241.164,184.574 241.566,183.5 241.969,182.473 242.367,181.492 242.77,180.555 243.168,179.668 243.57,178.832 243.973,178.047 244.371,177.313 244.773,176.633 245.172,176.008 245.574,175.434 245.973,174.918 246.375,174.453 246.777,174.047 247.176,173.695 247.578,173.402 247.977,173.164 248.379,172.98 248.777,172.855 249.18,172.781 249.582,172.766 249.98,172.805 250.383,172.895 250.781,173.043 251.184,173.238 251.582,173.484 251.984,173.785 252.387,174.129 252.785,174.523 253.188,174.965 253.586,175.453 253.988,175.98 254.387,176.551 254.789,177.16 255.191,177.809 255.59,178.492 255.992,179.211 256.391,179.961 256.793,180.742 257.191,181.551 257.594,182.387 257.996,183.242 258.395,184.121 258.797,185.02 259.195,185.934 259.598,186.859 259.996,187.801 260.398,188.75 260.801,189.703 261.199,190.664 261.602,191.625 262,192.586 262.402,193.543 262.805,194.492 263.203,195.434 263.605,196.363 264.004,197.281 264.406,198.184 264.805,199.066 265.207,199.93 265.609,200.77 266.008,201.586 266.41,202.371 266.809,203.129 267.211,203.855 267.609,204.547 268.012,205.203 268.414,205.82 268.813,206.398 269.215,206.934 269.613,207.43 270.016,207.879 270.414,208.281 270.816,208.633 271.219,208.938 271.617,209.195 272.02,209.398 272.418,209.551 272.82,209.645 273.219,209.691 273.621,209.676 274.023,209.609 274.422,209.484 274.824,209.305 275.223,209.066 275.625,208.773 276.023,208.422 276.426,208.012 276.828,207.547 277.227,207.023 277.629,206.445 278.027,205.813 278.43,205.121 278.828,204.375 279.23,203.578 279.633,202.727 280.031,201.824 280.434,200.871 280.832,199.871 281.234,198.82 281.637,197.723 282.035,196.582 282.438,195.398 282.836,194.172 283.238,192.902 283.637,191.598 284.039,190.258 284.441,188.883 284.84,187.477 285.242,186.043 285.641,184.578 286.043,183.09 286.441,181.578 286.844,180.043 287.246,178.496 287.645,176.93 288.047,175.348 288.445,173.762 288.848,172.164 289.246,170.559 289.648,168.953 290.051,167.348 290.449,165.746 290.852,164.148 291.25,162.559 291.652,160.977 292.051,159.41 292.453,157.859 292.855,156.328 293.254,154.813 293.656,153.324 294.055,151.859 294.457,150.426 294.855,149.02 295.258,147.645 295.66,146.309 296.059,145.008 296.461,143.746 296.859,142.523 297.262,141.348 297.664,140.215 298.063,139.129 298.465,138.094 298.863,137.109 299.266,136.176 299.664,135.293 300.066,134.469 300.469,133.699 300.867,132.988 301.27,132.336 301.668,131.742 302.07,131.207 302.469,130.738 302.871,130.324 303.273,129.977 303.672,129.691 304.074,129.469 304.473,129.313 304.875,129.215 305.273,129.184 305.676,129.215 306.078,129.309 306.477,129.465 306.879,129.684 307.277,129.961 307.68,130.305 308.078,130.703 308.48,131.164 308.883,131.684 309.281,132.258 309.684,132.887 310.082,133.574 310.484,134.313 310.883,135.102 311.285,135.941 311.688,136.828 312.086,137.762 312.488,138.742 312.887,139.766 313.289,140.828 313.688,141.926 314.09,143.066 314.492,144.238 314.891,145.441 315.293,146.676 315.691,147.934 316.094,149.223 316.496,150.531 316.895,151.859 317.297,153.203 317.695,154.566 318.098,155.938 318.496,157.324 318.898,158.715 319.301,160.109 319.699,161.508 320.102,162.906 320.5,164.301 320.902,165.691 321.301,167.074 321.703,168.445 322.105,169.805 322.504,171.148 322.906,172.473 323.305,173.777 323.707,175.063 324.105,176.32 324.508,177.551 324.91,178.754 325.309,179.93 325.711,181.066 326.109,182.172 326.512,183.238 326.91,184.27 327.313,185.258 327.715,186.207 328.113,187.113 328.516,187.973 328.914,188.785 329.316,189.551 329.715,190.27 330.117,190.941 330.52,191.563 330.918,192.129 331.32,192.645 331.719,193.109 332.121,193.523 332.52,193.883 332.922,194.188 333.324,194.441 333.723,194.641 334.125,194.789 334.523,194.879 334.926,194.922 335.328,194.91 335.727,194.844 336.129,194.73 336.527,194.563 336.93,194.348 337.328,194.086 337.73,193.773 338.133,193.418 338.531,193.016 338.934,192.57 339.332,192.082 339.734,191.551 340.133,190.984 340.535,190.379 340.938,189.738 341.336,189.063 341.738,188.359 342.137,187.621 342.539,186.859 342.938,186.07 343.34,185.258 343.742,184.426 344.141,183.57 344.543,182.703 344.941,181.82 345.344,180.93 345.742,180.027 346.145,179.117 346.547,178.203 346.945,177.289 347.348,176.375 347.746,175.461 348.148,174.559 348.547,173.66 348.949,172.777 349.352,171.906 349.75,171.051 350.152,170.211 350.551,169.395 350.953,168.602 351.352,167.836 351.754,167.098 352.156,166.387 352.555,165.711 352.957,165.066 353.355,164.461 353.758,163.895 354.16,163.367 354.559,162.883 354.961,162.445 355.359,162.051 355.762,161.707 356.16,161.41 356.563,161.164 356.965,160.969 357.363,160.828 357.766,160.742 358.164,160.715 358.566,160.738 358.965,160.824 359.367,160.965 359.77,161.168 360.168,161.426 360.57,161.746 360.969,162.129 361.371,162.57 361.77,163.07 362.172,163.633 362.574,164.254 362.973,164.938 363.375,165.68 363.773,166.48 364.176,167.34 364.574,168.262 364.977,169.234 365.379,170.266 365.777,171.355 366.18,172.496 366.578,173.691 366.98,174.934 367.379,176.23 367.781,177.578 368.184,178.969 368.582,180.406 368.984,181.887 369.383,183.41 369.785,184.973 370.188,186.57 370.586,188.207 370.988,189.875 371.387,191.578 371.789,193.309 372.188,195.063 372.59,196.844 372.992,198.645 373.391,200.469 373.793,202.309 374.191,204.16 374.594,206.023 374.992,207.898 375.395,209.777 375.797,211.664 376.195,213.551 376.598,215.434 376.996,217.313 377.398,219.188 377.797,221.051 378.199,222.902 378.602,224.742 379,226.563 379.402,228.363 379.801,230.145 380.203,231.898 380.602,233.625 381.004,235.324 381.406,236.992 381.805,238.625 382.207,240.223 382.605,241.781 383.008,243.301 383.406,244.781 383.809,246.211 384.211,247.602 384.609,248.941 385.012,250.23 385.41,251.473 385.813,252.66 386.211,253.797 386.613,254.879 387.016,255.902 387.414,256.871 387.816,257.781 388.215,258.633 388.617,259.426 389.02,260.16 389.418,260.832 389.82,261.441 390.219,261.992 390.621,262.484 391.02,262.91 391.422,263.277 391.824,263.586 392.223,263.832 392.625,264.016 393.023,264.141 393.426,264.207 393.824,264.219 394.227,264.168 394.629,264.063 395.027,263.902 395.43,263.688 395.828,263.418 396.23,263.098 396.629,262.727 397.031,262.309 397.434,261.844 397.832,261.332 398.234,260.777 398.633,260.18 399.035,259.547 399.434,258.871 399.836,258.16 400.238,257.418 400.637,256.645 401.039,255.84 401.438,255.012 401.84,254.156 402.238,253.281 402.641,252.387 403.043,251.473 403.441,250.543 403.844,249.605 404.242,248.656 404.645,247.699 405.047,246.738 405.445,245.777 405.848,244.813 406.246,243.855 406.648,242.898 407.047,241.953 407.449,241.02 407.852,240.098 408.25,239.191 408.652,238.301 409.051,237.434 409.453,236.586 409.852,235.762 410.254,234.965 410.656,234.199 411.055,233.465 411.457,232.762 411.855,232.09 412.258,231.461 412.656,230.867 413.059,230.313 413.461,229.801 413.859,229.328 414.262,228.906 414.66,228.527 415.063,228.191 415.461,227.91 415.863,227.672 416.266,227.488 416.664,227.352 417.066,227.27 417.465,227.238 417.867,227.258 418.266,227.332 418.668,227.457 419.07,227.637 419.469,227.867 419.871,228.152 420.27,228.492 420.672,228.883 421.07,229.324 421.473,229.82 421.875,230.363 422.273,230.957 422.676,231.602 423.074,232.293 423.477,233.035 423.879,233.82 424.277,234.648 424.68,235.523 425.078,236.438 425.48,237.395 425.879,238.387 426.281,239.418 426.684,240.484 427.082,241.586 427.484,242.715 427.883,243.875 428.285,245.063 428.684,246.273 429.086,247.508 429.488,248.762 429.887,250.035 430.289,251.324 430.688,252.629 431.09,253.941 431.488,255.262 431.891,256.59 432.293,257.918 432.691,259.25 433.094,260.582 433.492,261.906 433.895,263.227 434.293,264.535 434.695,265.832 435.098,267.113 435.496,268.379 435.898,269.625 436.297,270.852 436.699,272.051 437.098,273.223 437.5,274.367 437.902,275.48 438.301,276.559 438.703,277.602 439.102,278.605 439.504,279.57 439.902,280.492 440.305,281.371 440.707,282.203 441.105,282.988 441.508,283.723 441.906,284.41 442.309,285.039 442.711,285.617 443.109,286.141 443.512,286.605 443.91,287.016 444.313,287.363 444.711,287.652 445.113,287.883 445.516,288.051 445.914,288.156 446.316,288.199 446.715,288.184 447.117,288.102 447.516,287.957 447.918,287.746 448.32,287.477 448.719,287.145 449.121,286.746 449.52,286.289 449.922,285.77 450.32,285.188 450.723,284.547 451.125,283.844 451.523,283.086 451.926,282.27 452.324,281.395 452.727,280.469 453.125,279.488 453.527,278.453 453.93,277.371 454.328,276.238 454.73,275.059 455.129,273.832 455.531,272.563 455.93,271.254 456.332,269.902 456.734,268.516 457.133,267.094 457.535,265.641 457.934,264.156 458.336,262.645 458.734,261.105 459.137,259.543 459.539,257.961 459.938,256.359 460.34,254.742 460.738,253.109 461.141,251.469 461.543,249.82 461.941,248.168 462.344,246.512 462.742,244.855 463.145,243.203 463.543,241.555 463.945,239.91 464.348,238.281 464.746,236.664 465.148,235.063 465.547,233.477 465.949,231.914 466.348,230.371 466.75,228.855 467.152,227.367 467.551,225.91 467.953,224.48 468.352,223.09 468.754,221.73 469.152,220.414 469.555,219.133 469.957,217.898 470.355,216.703 470.758,215.555 471.156,214.453 471.559,213.398 471.957,212.395 472.359,211.441 472.762,210.539 473.16,209.691 473.563,208.895 473.961,208.156 474.363,207.473 474.762,206.844 475.164,206.273"/>
<polyline fill="none" stroke="#00ff00" stroke-width="0.5" points="74.8828,208.441 75.2852,208.098 75.6836,207.813 76.0859,207.586 76.4844,207.41 76.8867,207.289 77.2852,207.227 77.6875,207.215 78.0898,207.258 78.4883,207.352 78.8906,207.496 79.2891,207.695 79.6914,207.941 80.0898,208.238 80.4922,208.578 80.8945,208.969 81.293,209.402 81.6953,209.879 82.0938,210.398 82.4961,210.953 82.8984,211.551 83.2969,212.184 83.6992,212.848 84.0977,213.547 84.5,214.273 84.8984,215.031 85.3008,215.816 85.7031,216.621 86.1016,217.449 86.5039,218.297 86.9023,219.164 87.3047,220.043 87.7031,220.934 88.1055,221.836 88.5078,222.746 88.9063,223.66 89.3086,224.574 89.707,225.492 90.1094,226.406 90.5078,227.316 90.9102,228.223 91.3125,229.113 91.7109,229.996 92.1133,230.863 92.5117,231.715 92.9141,232.547 93.3125,233.355 93.7148,234.145 94.1172,234.906 94.5156,235.641 94.918,236.344 95.3164,237.016 95.7188,237.656 96.1172,238.258 96.5195,238.824 96.9219,239.352 97.3203,239.836 97.7227,240.281 98.1211,240.68 98.5234,241.035 98.9219,241.344 99.3242,241.605 99.7266,241.82 100.125,241.98 100.527,242.094 100.926,242.152 101.328,242.16 101.73,242.117 102.129,242.02 102.531,241.867 102.93,241.664 103.332,241.402 103.73,241.09 104.133,240.723 104.535,240.301 104.934,239.824 105.336,239.293 105.734,238.715 106.137,238.078 106.535,237.395 106.938,236.656 107.34,235.871 107.738,235.035 108.141,234.152 108.539,233.223 108.941,232.25 109.34,231.23 109.742,230.172 110.145,229.07 110.543,227.926 110.945,226.75 111.344,225.535 111.746,224.289 112.145,223.008 112.547,221.699 112.949,220.363 113.348,219 113.75,217.613 114.148,216.207 114.551,214.781 114.949,213.34 115.352,211.883 115.754,210.414 116.152,208.938 116.555,207.453 116.953,205.965 117.355,204.477 117.754,202.988 118.156,201.5 118.559,200.02 118.957,198.551 119.359,197.09 119.758,195.641 120.16,194.207 120.563,192.793 120.961,191.402 121.363,190.031 121.762,188.688 122.164,187.367 122.563,186.082 122.965,184.824 123.367,183.605 123.766,182.418 124.168,181.273 124.566,180.164 124.969,179.102 125.367,178.078 125.77,177.105 126.172,176.176 126.57,175.301 126.973,174.469 127.371,173.695 127.773,172.969 128.172,172.301 128.574,171.688 128.977,171.129 129.375,170.629 129.777,170.188 130.176,169.805 130.578,169.477 130.977,169.215 131.379,169.008 131.781,168.863 132.18,168.781 132.582,168.758 132.98,168.797 133.383,168.895 133.781,169.051 134.184,169.27 134.586,169.543 134.984,169.879 135.387,170.27 135.785,170.719 136.188,171.227 136.59,171.785 136.988,172.398 137.391,173.066 137.789,173.781 138.191,174.551 138.59,175.363 138.992,176.227 139.395,177.133 139.793,178.082 140.195,179.074 140.594,180.105 140.996,181.172 141.395,182.277 141.797,183.414 142.199,184.582 142.598,185.777 143,187 143.398,188.25 143.801,189.52 144.199,190.809 144.602,192.113 145.004,193.434 145.402,194.766 145.805,196.109 146.203,197.457 146.605,198.813 147.004,200.168 147.406,201.523 147.809,202.875 148.207,204.223 148.609,205.563 149.008,206.891 149.41,208.207 149.809,209.504 150.211,210.789 150.613,212.051 151.012,213.289 151.414,214.508 151.813,215.695 152.215,216.855 152.613,217.984 153.016,219.078 153.418,220.141 153.816,221.164 154.219,222.148 154.617,223.094 155.02,223.996 155.422,224.855 155.82,225.672 156.223,226.438 156.621,227.16 157.023,227.832 157.422,228.453 157.824,229.023 158.227,229.543 158.625,230.008 159.027,230.422 159.426,230.781 159.828,231.086 160.227,231.336 160.629,231.531 161.031,231.672 161.43,231.758 161.832,231.789 162.23,231.766 162.633,231.688 163.031,231.555 163.434,231.367 163.836,231.129 164.234,230.84 164.637,230.496 165.035,230.105 165.438,229.664 165.836,229.172 166.238,228.637 166.641,228.055 167.039,227.426 167.441,226.758 167.84,226.047 168.242,225.297 168.641,224.508 169.043,223.688 169.445,222.828 169.844,221.938 170.246,221.02 170.645,220.07 171.047,219.098 171.445,218.102 171.848,217.082 172.25,216.043 172.648,214.988 173.051,213.918 173.449,212.84 173.852,211.746 174.254,210.648 174.652,209.547 175.055,208.441 175.453,207.336 175.855,206.23 176.254,205.133 176.656,204.043 177.059,202.961 177.457,201.891 177.859,200.836 178.258,199.797 178.66,198.781 179.059,197.781 179.461,196.809 179.863,195.863 180.262,194.941 180.664,194.051 181.063,193.195 181.465,192.371 181.863,191.582 182.266,190.832 182.668,190.121 183.066,189.453 183.469,188.824 183.867,188.242 184.27,187.707 184.668,187.219 185.07,186.773 185.473,186.383 185.871,186.039 186.273,185.75 186.672,185.512 187.074,185.324 187.473,185.191 187.875,185.113 188.277,185.09 188.676,185.121 189.078,185.207 189.477,185.348 189.879,185.543 190.281,185.793 190.68,186.098 191.082,186.457 191.48,186.871 191.883,187.336 192.281,187.855 192.684,188.426 193.086,189.051 193.484,189.719 193.887,190.441 194.285,191.207 194.688,192.023 195.086,192.883 195.488,193.785 195.891,194.73 196.289,195.715 196.691,196.738 197.09,197.801 197.492,198.898 197.891,200.023 198.293,201.184 198.695,202.375 199.094,203.59 199.496,204.828 199.895,206.094 200.297,207.375 200.695,208.676 201.098,209.988 201.5,211.32 201.898,212.656 202.301,214.004 202.699,215.355 203.102,216.711 203.5,218.066 203.902,219.422 204.305,220.77 204.703,222.113 205.105,223.445 205.504,224.766 205.906,226.074 206.305,227.363 206.707,228.629 207.109,229.879 207.508,231.102 207.91,232.297 208.309,233.465 208.711,234.602 209.113,235.707 209.512,236.773 209.914,237.805 210.313,238.797 210.715,239.746 211.113,240.652 211.516,241.516 211.918,242.332 212.316,243.098 212.719,243.816 213.117,244.48 213.52,245.094 213.918,245.656 214.32,246.16 214.723,246.609 215.121,247 215.523,247.336 215.922,247.613 216.324,247.828 216.723,247.988 217.125,248.086 217.527,248.121 217.926,248.098 218.328,248.016 218.727,247.871 219.129,247.668 219.527,247.402 219.93,247.078 220.332,246.695 220.73,246.25 221.133,245.75 221.531,245.191 221.934,244.578 222.332,243.91 222.734,243.188 223.137,242.41 223.535,241.582 223.938,240.703 224.336,239.773 224.738,238.801 225.137,237.781 225.539,236.715 225.941,235.609 226.34,234.461 226.742,233.277 227.141,232.055 227.543,230.801 227.945,229.512 228.344,228.195 228.746,226.848 229.145,225.48 229.547,224.086 229.945,222.672 230.348,221.238 230.75,219.793 231.148,218.332 231.551,216.859 231.949,215.379 232.352,213.895 232.75,212.402 233.152,210.914 233.555,209.426 233.953,207.941 234.355,206.465 234.754,204.996 235.156,203.539 235.555,202.098 235.957,200.672 236.359,199.266 236.758,197.879 237.16,196.52 237.559,195.18 237.961,193.871 238.359,192.594 238.762,191.344 239.164,190.129 239.563,188.953 239.965,187.813 240.363,186.711 240.766,185.648 241.164,184.629 241.566,183.656 241.969,182.727 242.367,181.844 242.77,181.008 243.168,180.223 243.57,179.488 243.973,178.801 244.371,178.168 244.773,177.586 245.172,177.055 245.574,176.582 245.973,176.16 246.375,175.793 246.777,175.477 247.176,175.219 247.578,175.012 247.977,174.859 248.379,174.762 248.777,174.719 249.18,174.727 249.582,174.785 249.98,174.898 250.383,175.063 250.781,175.273 251.184,175.535 251.582,175.844 251.984,176.199 252.387,176.598 252.785,177.043 253.188,177.527 253.586,178.055 253.988,178.621 254.387,179.227 254.789,179.863 255.191,180.535 255.59,181.242 255.992,181.977 256.391,182.738 256.793,183.523 257.191,184.336 257.594,185.168 257.996,186.016 258.395,186.883 258.797,187.766 259.195,188.66 259.598,189.563 259.996,190.473 260.398,191.387 260.801,192.305 261.199,193.223 261.602,194.137 262,195.043 262.402,195.945 262.805,196.836 263.203,197.719 263.605,198.582 264.004,199.43 264.406,200.258 264.805,201.066 265.207,201.848 265.609,202.605 266.008,203.332 266.41,204.031 266.809,204.699 267.211,205.328 267.609,205.926 268.012,206.484 268.414,207 268.813,207.477 269.215,207.91 269.613,208.301 270.016,208.645 270.414,208.938 270.816,209.184 271.219,209.383 271.617,209.531 272.02,209.625 272.418,209.668 272.82,209.656 273.219,209.59 273.621,209.469 274.023,209.297 274.422,209.066 274.824,208.781 275.223,208.441 275.625,208.043 276.023,207.59 276.426,207.086 276.828,206.523 277.227,205.906 277.629,205.234 278.027,204.512 278.43,203.734 278.828,202.906 279.23,202.027 279.633,201.102 280.031,200.125 280.434,199.098 280.832,198.031 281.234,196.914 281.637,195.758 282.035,194.563 282.438,193.324 282.836,192.047 283.238,190.738 283.637,189.391 284.039,188.016 284.441,186.609 284.84,185.176 285.242,183.715 285.641,182.234 286.043,180.73 286.441,179.207 286.844,177.668 287.246,176.117 287.645,174.555 288.047,172.98 288.445,171.402 288.848,169.82 289.246,168.238 289.648,166.656 290.051,165.078 290.449,163.504 290.852,161.941 291.25,160.391 291.652,158.852 292.051,157.332 292.453,155.828 292.855,154.348 293.254,152.891 293.656,151.461 294.055,150.059 294.457,148.688 294.855,147.348 295.258,146.047 295.66,144.781 296.059,143.551 296.461,142.367 296.859,141.223 297.262,140.125 297.664,139.074 298.063,138.07 298.465,137.117 298.863,136.215 299.266,135.367 299.664,134.57 300.066,133.832 300.469,133.148 300.867,132.52 301.27,131.953 301.668,131.441 302.07,130.992 302.469,130.602 302.871,130.273 303.273,130.004 303.672,129.797 304.074,129.652 304.473,129.57 304.875,129.547 305.273,129.586 305.676,129.684 306.078,129.844 306.477,130.063 306.879,130.34 307.277,130.68 307.68,131.074 308.078,131.523 308.48,132.031 308.883,132.594 309.281,133.211 309.684,133.879 310.082,134.594 310.484,135.363 310.883,136.176 311.285,137.035 311.688,137.941 312.086,138.887 312.488,139.875 312.887,140.898 313.289,141.961 313.688,143.055 314.09,144.184 314.492,145.34 314.891,146.523 315.293,147.734 315.691,148.965 316.094,150.219 316.496,151.492 316.895,152.777 317.297,154.078 317.695,155.391 318.098,156.707 318.496,158.035 318.898,159.363 319.301,160.691 319.699,162.02 320.102,163.34 320.5,164.66 320.902,165.965 321.301,167.262 321.703,168.547 322.105,169.813 322.504,171.059 322.906,172.285 323.305,173.492 323.707,174.672 324.105,175.824 324.508,176.949 324.91,178.039 325.309,179.102 325.711,180.125 326.109,181.113 326.512,182.066 326.91,182.977 327.313,183.848 327.715,184.676 328.113,185.457 328.516,186.195 328.914,186.891 329.316,187.535 329.715,188.133 330.117,188.68 330.52,189.18 330.918,189.629 331.32,190.027 331.719,190.375 332.121,190.672 332.52,190.914 332.922,191.109 333.324,191.25 333.723,191.34 334.125,191.379 334.523,191.367 334.926,191.305 335.328,191.195 335.727,191.035 336.129,190.828 336.527,190.57 336.93,190.27 337.328,189.922 337.73,189.531 338.133,189.102 338.531,188.625 338.934,188.113 339.332,187.559 339.734,186.973 340.133,186.348 340.535,185.691 340.938,185.004 341.336,184.285 341.738,183.543 342.137,182.773 342.539,181.98 342.938,181.168 343.34,180.336 343.742,179.484 344.141,178.621 344.543,177.75 344.941,176.863 345.344,175.973 345.742,175.078 346.145,174.18 346.547,173.285 346.945,172.387 347.348,171.5 347.746,170.617 348.148,169.746 348.547,168.887 348.949,168.043 349.352,167.215 349.75,166.406 350.152,165.621 350.551,164.859 350.953,164.125 351.352,163.422 351.754,162.746 352.156,162.105 352.555,161.496 352.957,160.93 353.355,160.398 353.758,159.906 354.16,159.461 354.559,159.059 354.961,158.703 355.359,158.391 355.762,158.133 356.16,157.922 356.563,157.766 356.965,157.66 357.363,157.605 357.766,157.609 358.164,157.672 358.566,157.785 358.965,157.957 359.367,158.188 359.77,158.477 360.168,158.824 360.57,159.234 360.969,159.699 361.371,160.223 361.77,160.805 362.172,161.449 362.574,162.148 362.973,162.906 363.375,163.723 363.773,164.598 364.176,165.527 364.574,166.512 364.977,167.551 365.379,168.641 365.777,169.785 366.18,170.98 366.578,172.227 366.98,173.52 367.379,174.859 367.781,176.246 368.184,177.672 368.582,179.141 368.984,180.652 369.383,182.199 369.785,183.781 370.188,185.398 370.586,187.047 370.988,188.723 371.387,190.43 371.789,192.156 372.188,193.91 372.59,195.68 372.992,197.473 373.391,199.277 373.793,201.094 374.191,202.922 374.594,204.758 374.992,206.598 375.395,208.441 375.797,210.281 376.195,212.125 376.598,213.957 376.996,215.785 377.398,217.605 377.797,219.41 378.199,221.199 378.602,222.969 379,224.723 379.402,226.453 379.801,228.156 380.203,229.832 380.602,231.48 381.004,233.098 381.406,234.68 381.805,236.227 382.207,237.738 382.605,239.207 383.008,240.637 383.406,242.02 383.809,243.359 384.211,244.652 384.609,245.898 385.012,247.094 385.41,248.238 385.813,249.328 386.211,250.367 386.613,251.355 387.016,252.281 387.414,253.156 387.816,253.973 388.215,254.73 388.617,255.43 389.02,256.074 389.418,256.656 389.82,257.184 390.219,257.648 390.621,258.055 391.02,258.402 391.422,258.691 391.824,258.922 392.223,259.094 392.625,259.211 393.023,259.27 393.426,259.273 393.824,259.223 394.227,259.117 394.629,258.957 395.027,258.746 395.43,258.488 395.828,258.18 396.23,257.82 396.629,257.418 397.031,256.973 397.434,256.484 397.832,255.953 398.234,255.383 398.633,254.777 399.035,254.133 399.434,253.461 399.836,252.754 400.238,252.02 400.637,251.258 401.039,250.473 401.438,249.664 401.84,248.84 402.238,247.992 402.641,247.133 403.043,246.262 403.441,245.379 403.844,244.492 404.242,243.598 404.645,242.699 405.047,241.801 405.445,240.906 405.848,240.016 406.246,239.133 406.648,238.258 407.047,237.395 407.449,236.547 407.852,235.715 408.25,234.902 408.652,234.109 409.051,233.34 409.453,232.594 409.852,231.879 410.254,231.188 410.656,230.531 411.055,229.91 411.457,229.32 411.855,228.77 412.258,228.254 412.656,227.781 413.059,227.348 413.461,226.957 413.859,226.609 414.262,226.309 414.66,226.055 415.063,225.844 415.461,225.684 415.863,225.574 416.266,225.512 416.664,225.5 417.066,225.539 417.465,225.629 417.867,225.773 418.266,225.965 418.668,226.211 419.07,226.508 419.469,226.852 419.871,227.25 420.27,227.699 420.672,228.199 421.07,228.75 421.473,229.348 421.875,229.992 422.273,230.684 422.676,231.422 423.074,232.207 423.477,233.035 423.879,233.902 424.277,234.816 424.68,235.766 425.078,236.754 425.48,237.781 425.879,238.84 426.281,239.934 426.684,241.055 427.082,242.207 427.484,243.387 427.883,244.594 428.285,245.82 428.684,247.07 429.086,248.336 429.488,249.617 429.887,250.914 430.289,252.223 430.688,253.539 431.09,254.863 431.488,256.188 431.891,257.52 432.293,258.848 432.691,260.172 433.094,261.492 433.492,262.801 433.895,264.102 434.293,265.391 434.695,266.66 435.098,267.914 435.496,269.145 435.898,270.355 436.297,271.539 436.699,272.699 437.098,273.824 437.5,274.922 437.902,275.98 438.301,277.008 438.703,277.992 439.102,278.938 439.504,279.844 439.902,280.703 440.305,281.52 440.707,282.285 441.105,283.004 441.508,283.672 441.906,284.285 442.309,284.848 442.711,285.355 443.109,285.805 443.512,286.203 443.91,286.539 444.313,286.816 444.711,287.039 445.113,287.195 445.516,287.297 445.914,287.336 446.316,287.313 446.715,287.227 447.117,287.082 447.516,286.875 447.918,286.605 448.32,286.277 448.719,285.887 449.121,285.438 449.52,284.93 449.922,284.359 450.32,283.734 450.723,283.051 451.125,282.309 451.523,281.516 451.926,280.664 452.324,279.762 452.727,278.809 453.125,277.805 453.527,276.754 453.93,275.656 454.328,274.512 454.73,273.328 455.129,272.102 455.531,270.836 455.93,269.531 456.332,268.191 456.734,266.82 457.133,265.418 457.535,263.988 457.934,262.531 458.336,261.051 458.734,259.547 459.137,258.027 459.539,256.488 459.938,254.938 460.34,253.375 460.738,251.805 461.141,250.227 461.543,248.645 461.941,247.059 462.344,245.477 462.742,243.898 463.145,242.328 463.543,240.766 463.945,239.211 464.348,237.672 464.746,236.152 465.148,234.648 465.547,233.164 465.949,231.707 466.348,230.27 466.75,228.863 467.152,227.488 467.551,226.145 467.953,224.832 468.352,223.555 468.754,222.32 469.152,221.121 469.555,219.965 469.957,218.852 470.355,217.781 470.758,216.758 471.156,215.781 471.559,214.852 471.957,213.973 472.359,213.145 472.762,212.367 473.16,211.645 473.563,210.973 473.961,210.359 474.363,209.797 474.762,209.289 475.164,208.836"/>
</g>
<clipPath id="cp00560417">
  <polygon points="0,417 560,417 560,0 0,0"/>
</clipPath>
<g clip-path="url(#cp00560417)">
<polygon fill="#ffffff" points="518.398,35.2813 403.848,35.2813 403.848,77.8555"/>
<polygon fill="#ffffff" points="403.848,77.8555 518.398,77.8555 518.398,35.2813"/>
<polyline fill="none" stroke="#262626" stroke-width="0.5" stroke-dasharray="16,0" points="403.848,77.8555 518.398,77.8555"/>
<polyline fill="none" stroke="#262626" stroke-width="0.5" stroke-dasharray="16,0" points="403.848,35.2813 518.398,35.2813"/>
<polyline fill="none" stroke="#262626" stroke-width="0.5" stroke-dasharray="16,0" points="403.848,77.8555 403.848,35.2813"/>
<polyline fill="none" stroke="#262626" stroke-width="0.5" stroke-dasharray="16,0" points="518.398,77.8555 518.398,35.2813"/>
<text fill="#000000" x="431.18" y="42.3789" font-size="10" text-anchor="start" baseline-shift="-5" font-family="Helvetica">noisy signal</text>
<text fill="#000000" x="431.18" y="56.5703" font-size="10" text-anchor="start" baseline-shift="-5" font-family="Helvetica">generated signal</text>
<text fill="#000000" x="431.18" y="70.7617" font-size="10" text-anchor="start" baseline-shift="-5" font-family="Helvetica">analytical signal</text>
<polyline fill="none" stroke="#ff0000" stroke-width="0.5" points="406.723,42.375 428.305,42.375"/>
<polyline fill="none" stroke="#0000ff" stroke-width="0.5" points="406.723,56.5664 428.305,56.5664"/>
<polyline fill="none" stroke="#00ff00" stroke-width="0.5" points="406.723,70.7578 428.305,70.7578"/>
</g>
</g>
</svg>
