<?xml version="1.0" encoding="UTF-8" standalone="no"?>
<svg xmlns="http://www.w3.org/2000/svg"
     xmlns:xlink="http://www.w3.org/1999/xlink"
     width="560px" height="417px" viewBox="0 0 560 417">
<title>gl2ps_renderer figure</title>
<desc>
Creator: GL2PS 1.3.9, (C) 1999-2015 C. Geuzaine
For: Octave
CreationDate: Thu Dec 21 22:16:59 2017
</desc>
<defs>
</defs>
<polygon fill="#ffffff" points="0,0 560,0 560,417 0,417"/>
<g shape-rendering="crispEdges">
<polygon fill="#ffffff" points="0,417 560,417 560,0 0,0"/>
<clipPath id="cp00560417">
  <polygon points="0,417 560,417 560,0 0,0"/>
</clipPath>
<g clip-path="url(#cp00560417)">
<polygon fill="#ffffff" points="521.277,32.4023 74.8828,32.4023 74.8828,384.477"/>
<polygon fill="#ffffff" points="74.8828,384.477 521.277,384.477 521.277,32.4023"/>
<polyline fill="none" stroke="#262626" stroke-width="0.5" points="74.8828,384.477 74.8828,380.012"/>
<polyline fill="none" stroke="#262626" stroke-width="0.5" points="74.8828,32.4023 74.8828,36.8672"/>
<polyline fill="none" stroke="#262626" stroke-width="0.5" points="138.652,384.477 138.652,380.012"/>
<polyline fill="none" stroke="#262626" stroke-width="0.5" points="138.652,32.4023 138.652,36.8672"/>
<polyline fill="none" stroke="#262626" stroke-width="0.5" points="202.426,384.477 202.426,380.012"/>
<polyline fill="none" stroke="#262626" stroke-width="0.5" points="202.426,32.4023 202.426,36.8672"/>
<polyline fill="none" stroke="#262626" stroke-width="0.5" points="266.195,384.477 266.195,380.012"/>
<polyline fill="none" stroke="#262626" stroke-width="0.5" points="266.195,32.4023 266.195,36.8672"/>
<polyline fill="none" stroke="#262626" stroke-width="0.5" points="329.965,384.477 329.965,380.012"/>
<polyline fill="none" stroke="#262626" stroke-width="0.5" points="329.965,32.4023 329.965,36.8672"/>
<polyline fill="none" stroke="#262626" stroke-width="0.5" points="393.734,384.477 393.734,380.012"/>
<polyline fill="none" stroke="#262626" stroke-width="0.5" points="393.734,32.4023 393.734,36.8672"/>
<polyline fill="none" stroke="#262626" stroke-width="0.5" points="457.508,384.477 457.508,380.012"/>
<polyline fill="none" stroke="#262626" stroke-width="0.5" points="457.508,32.4023 457.508,36.8672"/>
<polyline fill="none" stroke="#262626" stroke-width="0.5" points="521.277,384.477 521.277,380.012"/>
<polyline fill="none" stroke="#262626" stroke-width="0.5" points="521.277,32.4023 521.277,36.8672"/>
<text fill="#262626" x="74.8828" y="389.48" font-size="10" text-anchor="middle" baseline-shift="-10" font-family="Helvetica">0</text>
<text fill="#262626" x="138.652" y="389.48" font-size="10" text-anchor="middle" baseline-shift="-10" font-family="Helvetica">1</text>
<text fill="#262626" x="202.426" y="389.48" font-size="10" text-anchor="middle" baseline-shift="-10" font-family="Helvetica">2</text>
<text fill="#262626" x="266.195" y="389.48" font-size="10" text-anchor="middle" baseline-shift="-10" font-family="Helvetica">3</text>
<text fill="#262626" x="329.965" y="389.48" font-size="10" text-anchor="middle" baseline-shift="-10" font-family="Helvetica">4</text>
<text fill="#262626" x="393.734" y="389.48" font-size="10" text-anchor="middle" baseline-shift="-10" font-family="Helvetica">5</text>
<text fill="#262626" x="457.508" y="389.48" font-size="10" text-anchor="middle" baseline-shift="-10" font-family="Helvetica">6</text>
<text fill="#262626" x="521.277" y="389.48" font-size="10" text-anchor="middle" baseline-shift="-10" font-family="Helvetica">7</text>
<polyline fill="none" stroke="#262626" stroke-width="0.5" points="74.8828,384.477 79.3516,384.477"/>
<polyline fill="none" stroke="#262626" stroke-width="0.5" points="521.277,384.477 516.809,384.477"/>
<polyline fill="none" stroke="#262626" stroke-width="0.5" points="74.8828,325.797 79.3516,325.797"/>
<polyline fill="none" stroke="#262626" stroke-width="0.5" points="521.277,325.797 516.809,325.797"/>
<polyline fill="none" stroke="#262626" stroke-width="0.5" points="74.8828,267.117 79.3516,267.117"/>
<polyline fill="none" stroke="#262626" stroke-width="0.5" points="521.277,267.117 516.809,267.117"/>
<polyline fill="none" stroke="#262626" stroke-width="0.5" points="74.8828,208.441 79.3516,208.441"/>
<polyline fill="none" stroke="#262626" stroke-width="0.5" points="521.277,208.441 516.809,208.441"/>
<polyline fill="none" stroke="#262626" stroke-width="0.5" points="74.8828,149.762 79.3516,149.762"/>
<polyline fill="none" stroke="#262626" stroke-width="0.5" points="521.277,149.762 516.809,149.762"/>
<polyline fill="none" stroke="#262626" stroke-width="0.5" points="74.8828,91.082 79.3516,91.082"/>
<polyline fill="none" stroke="#262626" stroke-width="0.5" points="521.277,91.082 516.809,91.082"/>
<polyline fill="none" stroke="#262626" stroke-width="0.5" points="74.8828,32.4023 79.3516,32.4023"/>
<polyline fill="none" stroke="#262626" stroke-width="0.5" points="521.277,32.4023 516.809,32.4023"/>
<text fill="#262626" x="69.8789" y="384.48" font-size="10" text-anchor="end" baseline-shift="-5" font-family="Helvetica">-6</text>
<text fill="#262626" x="69.8789" y="325.801" font-size="10" text-anchor="end" baseline-shift="-5" font-family="Helvetica">-4</text>
<text fill="#262626" x="69.8789" y="267.121" font-size="10" text-anchor="end" baseline-shift="-5" font-family="Helvetica">-2</text>
<text fill="#262626" x="69.8789" y="208.445" font-size="10" text-anchor="end" baseline-shift="-5" font-family="Helvetica">0</text>
<text fill="#262626" x="69.8789" y="149.766" font-size="10" text-anchor="end" baseline-shift="-5" font-family="Helvetica">2</text>
<text fill="#262626" x="69.8789" y="91.0859" font-size="10" text-anchor="end" baseline-shift="-5" font-family="Helvetica">4</text>
<text fill="#262626" x="69.8789" y="32.4063" font-size="10" text-anchor="end" baseline-shift="-5" font-family="Helvetica">6</text>
<polyline fill="none" stroke="#262626" stroke-width="0.5" stroke-dasharray="16,0" points="74.8828,384.477 521.277,384.477"/>
<polyline fill="none" stroke="#262626" stroke-width="0.5" stroke-dasharray="16,0" points="74.8828,32.4023 521.277,32.4023"/>
<polyline fill="none" stroke="#262626" stroke-width="0.5" stroke-dasharray="16,0" points="74.8828,384.477 74.8828,32.4023"/>
<polyline fill="none" stroke="#262626" stroke-width="0.5" stroke-dasharray="16,0" points="521.277,384.477 521.277,32.4023"/>
<polyline fill="none" stroke="#ff0000" stroke-width="0.5" points="74.8828,175.793 75.2852,226.559 75.6836,228.039 76.0859,197.266 76.4844,186.629 76.8867,233.109 77.2852,208.027 77.6875,179.836 78.0898,248.16 78.4883,232.34 78.8906,195.961 79.2891,175.008 79.6914,264.266 80.0898,160.152 80.4922,200.578 80.8945,217.961 81.293,178.477 81.6953,239.375 82.0938,181.699 82.4961,231.816 82.8984,244.457 83.2969,253.707 83.6992,237.211 84.0977,207.516 84.5,170.852 84.8984,184.535 85.3008,201.199 85.7031,169.668 86.1016,223.348 86.5039,229.664 86.9023,210.211 87.3047,244.293 87.7031,259.953 88.1055,223.766 88.5078,217.426 88.9063,192.328 89.3086,210.902 89.707,255.637 90.1094,203.676 90.5078,167.93 90.9102,267.746 91.3125,211.23 91.7109,224.852 92.1133,233.684 92.5117,262.719 92.9141,236.602 93.3125,263.926 93.7148,203.656 94.1172,182.039 94.5156,230.578 94.918,260.082 95.3164,230.641 95.7188,253.086 96.1172,229.48 96.5195,311.934 96.9219,228.066 97.3203,225.816 97.7227,236.68 98.1211,216.211 98.5234,211.391 98.9219,260.684 99.3242,244.969 99.7266,286.828 100.125,260.641 100.527,182.828 100.926,257.777 101.328,205.648 101.73,279.273 102.129,212.082 102.531,239.059 102.93,249.156 103.332,267.988 103.73,261.02 104.133,208.434 104.535,194.527 104.934,262.125 105.336,241.914 105.734,213.41 106.137,224.59 106.535,253.395 106.938,266.672 107.34,228.063 107.738,244.324 108.141,210.801 108.539,219.703 108.941,241.242 109.34,207.918 109.742,245.656 110.145,273.391 110.543,238.484 110.945,229.074 111.344,224.66 111.746,219.238 112.145,202.543 112.547,206.012 112.949,201.57 113.348,220.734 113.75,255 114.148,175.707 114.551,243.023 114.949,195.125 115.352,214.363 115.754,139.898 116.152,178.375 116.555,184.605 116.953,251.645 117.355,255.676 117.754,190.082 118.156,233.617 118.559,193.402 118.957,188.688 119.359,209.879 119.758,204.996 120.16,181.254 120.563,198.496 120.961,144.375 121.363,191.844 121.762,211.469 122.164,105.621 122.563,135.305 122.965,165.512 123.367,177.809 123.766,194.906 124.168,191.285 124.566,183 124.969,187.793 125.367,155.098 125.77,119.203 126.172,144.414 126.57,135.938 126.973,189.98 127.371,164.684 127.773,163.637 128.172,161.297 128.574,167.426 128.977,170.844 129.375,184.348 129.777,157.988 130.176,212.668 130.578,177.965 130.977,155.09 131.379,181.844 131.781,189.004 132.18,158.984 132.582,179.918 132.98,158.566 133.383,215.535 133.781,181.93 134.184,169.82 134.586,169.527 134.984,160.996 135.387,175.746 135.785,175.184 136.188,172.164 136.59,116.539 136.988,152.578 137.391,162.262 137.789,222.582 138.191,170.297 138.59,186.309 138.992,165.762 139.395,223.215 139.793,206.121 140.195,137.988 140.594,153.18 140.996,199.77 141.395,208.488 141.797,159.629 142.199,207.113 142.598,174.574 143,201.793 143.398,166.969 143.801,192.906 144.199,228.777 144.602,203.035 145.004,193.379 145.402,199.027 145.805,198.09 146.203,158.414 146.605,175.855 147.004,173.793 147.406,209.301 147.809,169.125 148.207,234.133 148.609,195.969 149.008,161.359 149.41,233.758 149.809,189.188 150.211,217.078 150.613,229.391 151.012,211.742 151.414,190.805 151.813,231.059 152.215,241.418 152.613,198.902 153.016,260.09 153.418,298.18 153.816,190.215 154.219,233.68 154.617,212.02 155.02,242.281 155.422,170.148 155.82,231.082 156.223,176.277 156.621,213.969 157.023,232.098 157.422,229.105 157.824,255.109 158.227,236.859 158.625,194.977 159.027,278.945 159.426,223.941 159.828,265.32 160.227,225.34 160.629,219.883 161.031,271.672 161.43,266.258 161.832,199 162.23,255.43 162.633,195.926 163.031,219.645 163.434,265.258 163.836,203.496 164.234,200.762 164.637,243.617 165.035,168.648 165.438,238.832 165.836,227.266 166.238,236.199 166.641,204.207 167.039,223.855 167.441,197.914 167.84,204.68 168.242,244.848 168.641,222.504 169.043,251.48 169.445,184.176 169.844,216.359 170.246,268.133 170.645,190.098 171.047,198.449 171.445,278.078 171.848,270.195 172.25,216.641 172.648,235.426 173.051,231.754 173.449,196.797 173.852,237.035 174.254,260.75 174.652,255.691 175.055,228.645 175.453,159.707 175.855,221.391 176.254,215.859 176.656,229.387 177.059,209.18 177.457,198.242 177.859,221.52 178.258,200.148 178.66,216.734 179.059,202.996 179.461,188.211 179.863,218.043 180.262,188.094 180.664,215.523 181.063,185.355 181.465,221.41 181.863,220.754 182.266,136.664 182.668,224.781 183.066,219.902 183.469,190.563 183.867,200.305 184.27,192.543 184.668,209.824 185.07,237.813 185.473,167.637 185.871,169.449 186.273,218.398 186.672,173.441 187.074,174.273 187.473,182.117 187.875,185.102 188.277,136.496 188.676,133.871 189.078,171.676 189.477,163.074 189.879,224.359 190.281,157.352 190.68,198.313 191.082,175.285 191.48,174.824 191.883,170.559 192.281,161.523 192.684,162.266 193.086,188.109 193.484,185.566 193.887,212.023 194.285,192.777 194.688,194.18 195.086,170.59 195.488,219.469 195.891,177.344 196.289,201.5 196.691,212.047 197.09,193.238 197.492,199.543 197.891,190.902 198.293,228.223 198.695,127.992 199.094,195.129 199.496,191.848 199.895,228.566 200.297,212.301 200.695,231.203 201.098,219.332 201.5,220.887 201.898,253.555 202.301,238.273 202.699,207.391 203.102,205.387 203.5,225.785 203.902,240.691 204.305,186.512 204.703,256.789 205.105,265.809 205.504,215.313 205.906,229.742 206.305,217.223 206.707,261.664 207.109,230.926 207.508,197.852 207.91,239.125 208.309,199.391 208.711,239.746 209.113,214.57 209.512,229.801 209.914,218.699 210.313,228.383 210.715,260.539 211.113,226.363 211.516,202.578 211.918,236.379 212.316,247.23 212.719,258.246 213.117,243.875 213.52,218.898 213.918,288.266 214.32,255.73 214.723,250.156 215.121,249.84 215.523,226.531 215.922,288.156 216.324,276.816 216.723,280.133 217.125,243.605 217.527,297.301 217.926,262.055 218.328,296.043 218.727,247.449 219.129,192.32 219.527,294.793 219.93,242.836 220.332,235.953 220.73,277.727 221.133,278.781 221.531,247.766 221.934,273.918 222.332,251.324 222.734,286.195 223.137,214.293 223.535,229.098 223.938,258.211 224.336,282.883 224.738,215.195 225.137,287.031 225.539,225.82 225.941,278.613 226.34,261.824 226.742,258.426 227.141,233.555 227.543,233.02 227.945,243.063 228.344,186.23 228.746,198.719 229.145,232.84 229.547,259.246 229.945,234.555 230.348,284.371 230.75,224.566 231.148,219.238 231.551,185.684 231.949,193.25 232.352,243.234 232.75,163.91 233.152,198.379 233.555,197.586 233.953,218.164 234.355,205.934 234.754,183.168 235.156,168.355 235.555,163.77 235.957,202.852 236.359,189.773 236.758,172.461 237.16,229.328 237.559,196.926 237.961,156.254 238.359,210.492 238.762,182.273 239.164,218.984 239.563,192.43 239.965,177.5 240.363,171.445 240.766,172.371 241.164,161.992 241.566,198.16 241.969,165.516 242.367,187.656 242.77,188.242 243.168,189.5 243.57,215.508 243.973,206.152 244.371,187.188 244.773,226.453 245.172,192.449 245.574,168.453 245.973,167.691 246.375,216.641 246.777,176.012 247.176,148.832 247.578,234.945 247.977,175.996 248.379,160.508 248.777,162.547 249.18,123.129 249.582,171.758 249.98,200.422 250.383,201.215 250.781,198.262 251.184,242.188 251.582,112.133 251.984,105.16 252.387,131.578 252.785,196.789 253.188,124.293 253.586,166.703 253.988,140.879 254.387,223.395 254.789,183.32 255.191,244.918 255.59,138.262 255.992,196.453 256.391,190.926 256.793,168.918 257.191,223.867 257.594,174.859 257.996,213.992 258.395,185.563 258.797,219.891 259.195,178.422 259.598,207.176 259.996,212.969 260.398,238.844 260.801,228.094 261.199,138.793 261.602,172.461 262,147.152 262.402,249.012 262.805,171.813 263.203,244.023 263.605,182.238 264.004,235.207 264.406,210.395 264.805,200.59 265.207,242.223 265.609,225.18 266.008,215.836 266.41,220.859 266.809,213.059 267.211,186.668 267.609,178.949 268.012,235.418 268.414,197.859 268.813,196.516 269.215,201.984 269.613,204.164 270.016,250.551 270.414,224.168 270.816,218.297 271.219,205.273 271.617,218.457 272.02,204.922 272.418,189.5 272.82,238.605 273.219,216.324 273.621,201.266 274.023,189.25 274.422,187.633 274.824,262.695 275.223,241.496 275.625,199.148 276.023,168.883 276.426,188.063 276.828,184.598 277.227,193.863 277.629,230.766 278.027,250.145 278.43,238.449 278.828,197.879 279.23,236.711 279.633,201.25 280.031,179.391 280.434,222.242 280.832,205.453 281.234,196.293 281.637,185.719 282.035,173.375 282.438,203.383 282.836,215.094 283.238,223.094 283.637,209.277 284.039,170.078 284.441,197.598 284.84,195.648 285.242,202.031 285.641,152.816 286.043,199.488 286.441,174.227 286.844,221.613 287.246,139.648 287.645,180.199 288.047,168.41 288.445,207.945 288.848,137.516 289.246,211.344 289.648,116.254 290.051,150.25 290.449,94.0117 290.852,168.668 291.25,128.59 291.652,179.063 292.051,173.453 292.453,127.293 292.855,190.305 293.254,135.559 293.656,76.9805 294.055,104.457 294.457,116.859 294.855,178.285 295.258,125.813 295.66,97.5156 296.059,167.309 296.461,76.9453 296.859,143.758 297.262,127.57 297.664,153.574 298.063,125.637 298.465,162.914 298.863,157.164 299.266,147.152 299.664,179.223 300.066,149.551 300.469,88.8359 300.867,167.426 301.27,99.1602 301.668,139.316 302.07,69.9453 302.469,102.098 302.871,172.992 303.273,92.7773 303.672,110.051 304.074,152.879 304.473,143.465 304.875,111.266 305.273,118.031 305.676,110.402 306.078,166.629 306.477,155.484 306.879,94.1953 307.277,134.766 307.68,170.148 308.078,146.711 308.48,176.984 308.883,170.934 309.281,57.7813 309.684,145.445 310.082,91.4844 310.484,154.527 310.883,66.2148 311.285,112.793 311.688,146.203 312.086,108.906 312.488,201.586 312.887,130.117 313.289,142.305 313.688,106.465 314.09,160.859 314.492,169.426 314.891,118.258 315.293,171.031 315.691,111.332 316.094,174.813 316.496,126.387 316.895,212.574 317.297,162.738 317.695,153.438 318.098,130.805 318.496,187.414 318.898,143.789 319.301,165.133 319.699,155.266 320.102,196.379 320.5,147.496 320.902,119.543 321.301,162.309 321.703,165.813 322.105,225.207 322.504,248.07 322.906,125.309 323.305,130.668 323.707,137.504 324.105,179.895 324.508,172.438 324.91,175.172 325.309,146.504 325.711,163.531 326.109,165.371 326.512,191.824 326.91,173.184 327.313,167.883 327.715,152.645 328.113,189.402 328.516,208.434 328.914,157.844 329.316,206.211 329.715,228.215 330.117,170.758 330.52,216.668 330.918,138.965 331.32,141.926 331.719,143.543 332.121,110.73 332.52,209.281 332.922,262.094 333.324,185.18 333.723,174.59 334.125,197.262 334.523,175.656 334.926,128.906 335.328,196.824 335.727,235.07 336.129,239.285 336.527,164.066 336.93,188.391 337.328,250.941 337.73,203.402 338.133,198.191 338.531,169.453 338.934,228.004 339.332,154.32 339.734,178.75 340.133,184.82 340.535,188.793 340.938,183.695 341.336,117.914 341.738,198.129 342.137,192.59 342.539,201.344 342.938,225.742 343.34,148.93 343.742,154.719 344.141,157.109 344.543,171.93 344.941,156.258 345.344,156.484 345.742,179.152 346.145,182.152 346.547,141.609 346.945,121.434 347.348,202.613 347.746,110.75 348.148,160.719 348.547,159.043 348.949,198.422 349.352,197.637 349.75,171.559 350.152,180.355 350.551,212.992 350.953,205.684 351.352,163.988 351.754,171.934 352.156,137.637 352.555,248.168 352.957,170.633 353.355,195.746 353.758,194.031 354.16,157.254 354.559,171.645 354.961,136.98 355.359,149.797 355.762,155.293 356.16,153.641 356.563,148.234 356.965,199.352 357.363,143.227 357.766,189.367 358.164,150.352 358.566,168.078 358.965,180.344 359.367,164.926 359.77,135.09 360.168,148.102 360.57,194.309 360.969,177.926 361.371,222.48 361.77,189.973 362.172,155.109 362.574,165.715 362.973,136.723 363.375,215.922 363.773,170.336 364.176,145.586 364.574,162.996 364.977,231.422 365.379,149.23 365.777,182.625 366.18,183.094 366.578,154.695 366.98,175.391 367.379,199.449 367.781,207.273 368.184,132.934 368.582,169.508 368.984,183.422 369.383,150.793 369.785,207.113 370.188,196.676 370.586,179.855 370.988,191.234 371.387,154.996 371.789,152.758 372.188,241.465 372.59,204.848 372.992,181.762 373.391,169.309 373.793,171.391 374.191,205.555 374.594,191.879 374.992,218.477 375.395,200.57 375.797,215.703 376.195,209.934 376.598,196.789 376.996,236.133 377.398,222.688 377.797,217.914 378.199,221.25 378.602,271.367 379,243.984 379.402,225.336 379.801,239.238 380.203,235.566 380.602,285.348 381.004,182.102 381.406,189.859 381.805,220.285 382.207,250.016 382.605,234.555 383.008,226.508 383.406,199.504 383.809,251.348 384.211,250.789 384.609,233.863 385.012,215.734 385.41,325.078 385.813,226.82 386.211,286.738 386.613,261.352 387.016,226.238 387.414,293.484 387.816,257.82 388.215,303.578 388.617,258.859 389.02,171.664 389.418,259.648 389.82,256.613 390.219,256.746 390.621,251.395 391.02,266.797 391.422,209.996 391.824,259.086 392.223,283.027 392.625,281.563 393.023,310.227 393.426,243.664 393.824,245.297 394.227,270.82 394.629,247.18 395.027,260.602 395.43,252.727 395.828,273.723 396.23,260.559 396.629,242.609 397.031,195.184 397.434,214.691 397.832,250.352 398.234,272.363 398.633,281.082 399.035,267.008 399.434,313.859 399.836,288.578 400.238,218.516 400.637,252.094 401.039,200.418 401.438,253.273 401.84,220.957 402.238,260.145 402.641,234.742 403.043,247.133 403.441,213.863 403.844,250.043 404.242,312.863 404.645,226.711 405.047,267.055 405.445,249.754 405.848,227.777 406.246,169.082 406.648,261.004 407.047,228.445 407.449,181.324 407.852,207.336 408.25,259.996 408.652,249.066 409.051,278.617 409.453,168.109 409.852,235.824 410.254,273.078 410.656,241.992 411.055,229.922 411.457,178.547 411.855,229.238 412.258,236.105 412.656,268.949 413.059,184.043 413.461,202.309 413.859,249.367 414.262,198.184 414.66,226.559 415.063,219.977 415.461,168.816 415.863,190.418 416.266,211.32 416.664,239.07 417.066,231.977 417.465,286.703 417.867,232.152 418.266,242.668 418.668,232.199 419.07,222.41 419.469,192.328 419.871,216.129 420.27,243.73 420.672,251.219 421.07,213.711 421.473,252.367 421.875,231.492 422.273,225.547 422.676,248.633 423.074,217.277 423.477,266.648 423.879,245.734 424.277,245.984 424.68,215.129 425.078,200.672 425.48,233.738 425.879,195.344 426.281,255.145 426.684,219.605 427.082,192.68 427.484,228.91 427.883,310.168 428.285,215.684 428.684,264.625 429.086,270.836 429.488,179.324 429.887,279.832 430.289,204.598 430.688,247.531 431.09,251.754 431.488,247.941 431.891,196.027 432.293,280.16 432.691,231.918 433.094,270.387 433.492,210.723 433.895,282.918 434.293,212.848 434.695,203.023 435.098,220.336 435.496,315.27 435.898,265.676 436.297,237.73 436.699,297.133 437.098,265.586 437.5,311.566 437.902,329.117 438.301,244.742 438.703,266.5 439.102,269.082 439.504,277.816 439.902,306.379 440.305,242.359 440.707,296.941 441.105,294.953 441.508,307.762 441.906,217.813 442.309,247.738 442.711,307.348 443.109,283.98 443.512,282.859 443.91,287.199 444.313,303.586 444.711,301.863 445.113,313.18 445.516,216.949 445.914,280.23 446.316,285.402 446.715,264.922 447.117,271.492 447.516,232.242 447.918,243.855 448.32,281.973 448.719,291.512 449.121,317.555 449.52,284.02 449.922,301.625 450.32,282.406 450.723,257.988 451.125,308.262 451.523,323.621 451.926,273.797 452.324,277.652 452.727,293.777 453.125,279.645 453.527,286.883 453.93,312.105 454.328,321.992 454.73,275.262 455.129,244.457 455.531,303.445 455.93,286.559 456.332,293.211 456.734,253.664 457.133,246.941 457.535,245.625 457.934,249.363 458.336,291.367 458.734,251.391 459.137,226.645 459.539,241.953 459.938,343.461 460.34,252.219 460.738,278.746 461.141,263.434 461.543,237.59 461.941,241.09 462.344,247.078 462.742,243.805 463.145,217.305 463.543,249.934 463.945,236.219 464.348,293.926 464.746,204.121 465.148,250.668 465.547,210.688 465.949,235.48 466.348,172.977 466.75,179.852 467.152,248.371 467.551,233.563 467.953,253.75 468.352,266.559 468.754,198.984 469.152,230.348 469.555,247.328 469.957,196.516 470.355,221.699 470.758,242.27 471.156,293.379 471.559,165.828 471.957,225.777 472.359,231.414 472.762,297.766 473.16,240.617 473.563,189.809 473.961,226.477 474.363,208.309 474.762,204.414 475.164,235.91"/>
</g>
<clipPath id="cp00560417">
  <polygon points="0,417 560,417 560,0 0,0"/>
</clipPath>
<g clip-path="url(#cp00560417)">
<polygon fill="#ffffff" points="518.398,35.2813 428.531,35.2813 428.531,49.4727"/>
<polygon fill="#ffffff" points="428.531,49.4727 518.398,49.4727 518.398,35.2813"/>
<polyline fill="none" stroke="#262626" stroke-width="0.5" stroke-dasharray="16,0" points="428.531,35.2813 518.398,35.2813"/>
<polyline fill="none" stroke="#262626" stroke-width="0.5" stroke-dasharray="16,0" points="428.531,49.4727 428.531,35.2813"/>
<polyline fill="none" stroke="#262626" stroke-width="0.5" stroke-dasharray="16,0" points="518.398,49.4727 518.398,35.2813"/>
<text fill="#000000" x="455.867" y="42.3789" font-size="10" text-anchor="start" baseline-shift="-5" font-family="Helvetica">noisy signal</text>
<polyline fill="none" stroke="#ff0000" stroke-width="0.5" points="431.41,42.375 452.988,42.375"/>
<polyline fill="none" stroke="#262626" stroke-width="0.5" stroke-dasharray="16,0" points="428.531,49.4727 518.398,49.4727"/>
</g>
</g>
</svg>
