<?xml version="1.0" encoding="UTF-8" standalone="no"?>
<svg xmlns="http://www.w3.org/2000/svg"
     xmlns:xlink="http://www.w3.org/1999/xlink"
     width="560px" height="417px" viewBox="0 0 560 417">
<title>gl2ps_renderer figure</title>
<desc>
Creator: GL2PS 1.3.9, (C) 1999-2015 C. Geuzaine
For: Octave
CreationDate: Thu Dec 21 22:16:21 2017
</desc>
<defs>
</defs>
<polygon fill="#ffffff" points="0,0 560,0 560,417 0,417"/>
<g shape-rendering="crispEdges">
<polygon fill="#ffffff" points="0,417 560,417 560,0 0,0"/>
<clipPath id="cp00560417">
  <polygon points="0,417 560,417 560,0 0,0"/>
</clipPath>
<g clip-path="url(#cp00560417)">
<polygon fill="#ffffff" points="521.277,32.4023 74.8828,32.4023 74.8828,384.477"/>
<polygon fill="#ffffff" points="74.8828,384.477 521.277,384.477 521.277,32.4023"/>
<polyline fill="none" stroke="#262626" stroke-width="0.5" points="74.8828,384.477 74.8828,380.012"/>
<polyline fill="none" stroke="#262626" stroke-width="0.5" points="74.8828,32.4023 74.8828,36.8672"/>
<polyline fill="none" stroke="#262626" stroke-width="0.5" points="138.652,384.477 138.652,380.012"/>
<polyline fill="none" stroke="#262626" stroke-width="0.5" points="138.652,32.4023 138.652,36.8672"/>
<polyline fill="none" stroke="#262626" stroke-width="0.5" points="202.426,384.477 202.426,380.012"/>
<polyline fill="none" stroke="#262626" stroke-width="0.5" points="202.426,32.4023 202.426,36.8672"/>
<polyline fill="none" stroke="#262626" stroke-width="0.5" points="266.195,384.477 266.195,380.012"/>
<polyline fill="none" stroke="#262626" stroke-width="0.5" points="266.195,32.4023 266.195,36.8672"/>
<polyline fill="none" stroke="#262626" stroke-width="0.5" points="329.965,384.477 329.965,380.012"/>
<polyline fill="none" stroke="#262626" stroke-width="0.5" points="329.965,32.4023 329.965,36.8672"/>
<polyline fill="none" stroke="#262626" stroke-width="0.5" points="393.734,384.477 393.734,380.012"/>
<polyline fill="none" stroke="#262626" stroke-width="0.5" points="393.734,32.4023 393.734,36.8672"/>
<polyline fill="none" stroke="#262626" stroke-width="0.5" points="457.508,384.477 457.508,380.012"/>
<polyline fill="none" stroke="#262626" stroke-width="0.5" points="457.508,32.4023 457.508,36.8672"/>
<polyline fill="none" stroke="#262626" stroke-width="0.5" points="521.277,384.477 521.277,380.012"/>
<polyline fill="none" stroke="#262626" stroke-width="0.5" points="521.277,32.4023 521.277,36.8672"/>
<text fill="#262626" x="74.8828" y="389.48" font-size="10" text-anchor="middle" baseline-shift="-10" font-family="Helvetica">0</text>
<text fill="#262626" x="138.652" y="389.48" font-size="10" text-anchor="middle" baseline-shift="-10" font-family="Helvetica">1</text>
<text fill="#262626" x="202.426" y="389.48" font-size="10" text-anchor="middle" baseline-shift="-10" font-family="Helvetica">2</text>
<text fill="#262626" x="266.195" y="389.48" font-size="10" text-anchor="middle" baseline-shift="-10" font-family="Helvetica">3</text>
<text fill="#262626" x="329.965" y="389.48" font-size="10" text-anchor="middle" baseline-shift="-10" font-family="Helvetica">4</text>
<text fill="#262626" x="393.734" y="389.48" font-size="10" text-anchor="middle" baseline-shift="-10" font-family="Helvetica">5</text>
<text fill="#262626" x="457.508" y="389.48" font-size="10" text-anchor="middle" baseline-shift="-10" font-family="Helvetica">6</text>
<text fill="#262626" x="521.277" y="389.48" font-size="10" text-anchor="middle" baseline-shift="-10" font-family="Helvetica">7</text>
<polyline fill="none" stroke="#262626" stroke-width="0.5" points="74.8828,384.477 79.3516,384.477"/>
<polyline fill="none" stroke="#262626" stroke-width="0.5" points="521.277,384.477 516.809,384.477"/>
<polyline fill="none" stroke="#262626" stroke-width="0.5" points="74.8828,325.797 79.3516,325.797"/>
<polyline fill="none" stroke="#262626" stroke-width="0.5" points="521.277,325.797 516.809,325.797"/>
<polyline fill="none" stroke="#262626" stroke-width="0.5" points="74.8828,267.117 79.3516,267.117"/>
<polyline fill="none" stroke="#262626" stroke-width="0.5" points="521.277,267.117 516.809,267.117"/>
<polyline fill="none" stroke="#262626" stroke-width="0.5" points="74.8828,208.441 79.3516,208.441"/>
<polyline fill="none" stroke="#262626" stroke-width="0.5" points="521.277,208.441 516.809,208.441"/>
<polyline fill="none" stroke="#262626" stroke-width="0.5" points="74.8828,149.762 79.3516,149.762"/>
<polyline fill="none" stroke="#262626" stroke-width="0.5" points="521.277,149.762 516.809,149.762"/>
<polyline fill="none" stroke="#262626" stroke-width="0.5" points="74.8828,91.082 79.3516,91.082"/>
<polyline fill="none" stroke="#262626" stroke-width="0.5" points="521.277,91.082 516.809,91.082"/>
<polyline fill="none" stroke="#262626" stroke-width="0.5" points="74.8828,32.4023 79.3516,32.4023"/>
<polyline fill="none" stroke="#262626" stroke-width="0.5" points="521.277,32.4023 516.809,32.4023"/>
<text fill="#262626" x="69.8789" y="384.48" font-size="10" text-anchor="end" baseline-shift="-5" font-family="Helvetica">-3</text>
<text fill="#262626" x="69.8789" y="325.801" font-size="10" text-anchor="end" baseline-shift="-5" font-family="Helvetica">-2</text>
<text fill="#262626" x="69.8789" y="267.121" font-size="10" text-anchor="end" baseline-shift="-5" font-family="Helvetica">-1</text>
<text fill="#262626" x="69.8789" y="208.445" font-size="10" text-anchor="end" baseline-shift="-5" font-family="Helvetica">0</text>
<text fill="#262626" x="69.8789" y="149.766" font-size="10" text-anchor="end" baseline-shift="-5" font-family="Helvetica">1</text>
<text fill="#262626" x="69.8789" y="91.0859" font-size="10" text-anchor="end" baseline-shift="-5" font-family="Helvetica">2</text>
<text fill="#262626" x="69.8789" y="32.4063" font-size="10" text-anchor="end" baseline-shift="-5" font-family="Helvetica">3</text>
<polyline fill="none" stroke="#262626" stroke-width="0.5" stroke-dasharray="16,0" points="74.8828,384.477 521.277,384.477"/>
<polyline fill="none" stroke="#262626" stroke-width="0.5" stroke-dasharray="16,0" points="74.8828,32.4023 521.277,32.4023"/>
<polyline fill="none" stroke="#262626" stroke-width="0.5" stroke-dasharray="16,0" points="74.8828,384.477 74.8828,32.4023"/>
<polyline fill="none" stroke="#262626" stroke-width="0.5" stroke-dasharray="16,0" points="521.277,384.477 521.277,32.4023"/>
<polyline fill="none" stroke="#00ff00" stroke-width="0.5" points="74.8828,208.441 75.2852,207.758 75.6836,207.188 76.0859,206.727 76.4844,206.379 76.8867,206.141 77.2852,206.008 77.6875,205.988 78.0898,206.07 78.4883,206.262 78.8906,206.555 79.2891,206.949 79.6914,207.441 80.0898,208.035 80.4922,208.719 80.8945,209.496 81.293,210.363 81.6953,211.316 82.0938,212.352 82.4961,213.469 82.8984,214.66 83.2969,215.922 83.6992,217.258 84.0977,218.652 84.5,220.109 84.8984,221.625 85.3008,223.191 85.7031,224.805 86.1016,226.461 86.5039,228.156 86.9023,229.887 87.3047,231.645 87.7031,233.43 88.1055,235.23 88.5078,237.051 88.9063,238.879 89.3086,240.711 89.707,242.547 90.1094,244.375 90.5078,246.195 90.9102,248.004 91.3125,249.789 91.7109,251.551 92.1133,253.285 92.5117,254.988 92.9141,256.652 93.3125,258.273 93.7148,259.848 94.1172,261.371 94.5156,262.84 94.918,264.246 95.3164,265.594 95.7188,266.871 96.1172,268.078 96.5195,269.207 96.9219,270.262 97.3203,271.234 97.7227,272.121 98.1211,272.922 98.5234,273.633 98.9219,274.25 99.3242,274.773 99.7266,275.195 100.125,275.523 100.527,275.746 100.926,275.867 101.328,275.883 101.73,275.793 102.129,275.598 102.531,275.297 102.93,274.883 103.332,274.367 103.73,273.738 104.133,273.004 104.535,272.16 104.934,271.207 105.336,270.148 105.734,268.988 106.137,267.719 106.535,266.348 106.938,264.875 107.34,263.301 107.738,261.633 108.141,259.867 108.539,258.008 108.941,256.059 109.34,254.023 109.742,251.898 110.145,249.695 110.543,247.414 110.945,245.059 111.344,242.629 111.746,240.137 112.145,237.578 112.547,234.957 112.949,232.285 113.348,229.559 113.75,226.789 114.148,223.973 114.551,221.121 114.949,218.238 115.352,215.324 115.754,212.391 116.152,209.438 116.555,206.469 116.953,203.492 117.355,200.512 117.754,197.535 118.156,194.563 118.559,191.602 118.957,188.66 119.359,185.738 119.758,182.84 120.16,179.977 120.563,177.148 120.961,174.363 121.363,171.621 121.762,168.934 122.164,166.297 122.563,163.723 122.965,161.211 123.367,158.766 123.766,156.398 124.168,154.102 124.566,151.891 124.969,149.762 125.367,147.719 125.77,145.77 126.172,143.914 126.57,142.156 126.973,140.5 127.371,138.949 127.773,137.5 128.172,136.164 128.574,134.934 128.977,133.82 129.375,132.816 129.777,131.934 130.176,131.164 130.578,130.516 130.977,129.988 131.379,129.578 131.781,129.289 132.18,129.121 132.582,129.078 132.98,129.152 133.383,129.348 133.781,129.66 134.184,130.094 134.586,130.648 134.984,131.316 135.387,132.102 135.785,133 136.188,134.008 136.59,135.129 136.988,136.355 137.391,137.688 137.789,139.125 138.191,140.656 138.59,142.289 138.992,144.012 139.395,145.824 139.793,147.727 140.195,149.707 140.594,151.77 140.996,153.906 141.395,156.113 141.797,158.387 142.199,160.723 142.598,163.117 143,165.563 143.398,168.059 143.801,170.598 144.199,173.176 144.602,175.785 145.004,178.43 145.402,181.094 145.805,183.777 146.203,186.477 146.605,189.184 147.004,191.895 147.406,194.605 147.809,197.313 148.207,200.004 148.609,202.684 149.008,205.34 149.41,207.973 149.809,210.57 150.211,213.137 150.613,215.66 151.012,218.141 151.414,220.574 151.813,222.949 152.215,225.27 152.613,227.527 153.016,229.719 153.418,231.84 153.816,233.887 154.219,235.859 154.617,237.75 155.02,239.555 155.422,241.273 155.82,242.902 156.223,244.438 156.621,245.879 157.023,247.223 157.422,248.465 157.824,249.605 158.227,250.645 158.625,251.578 159.027,252.402 159.426,253.121 159.828,253.734 160.227,254.234 160.629,254.625 161.031,254.906 161.43,255.078 161.832,255.141 162.23,255.09 162.633,254.934 163.031,254.668 163.434,254.297 163.836,253.82 164.234,253.238 164.637,252.555 165.035,251.77 165.438,250.887 165.836,249.906 166.238,248.832 166.641,247.668 167.039,246.414 167.441,245.074 167.84,243.656 168.242,242.156 168.641,240.578 169.043,238.93 169.445,237.215 169.844,235.438 170.246,233.598 170.645,231.703 171.047,229.754 171.445,227.762 171.848,225.723 172.25,223.648 172.648,221.539 173.051,219.398 173.449,217.238 173.852,215.055 174.254,212.859 174.652,210.652 175.055,208.441 175.453,206.23 175.855,204.023 176.254,201.824 176.656,199.645 177.059,197.48 177.457,195.344 177.859,193.234 178.258,191.156 178.66,189.121 179.059,187.125 179.461,185.18 179.863,183.281 180.262,181.441 180.664,179.664 181.063,177.949 181.465,176.301 181.863,174.727 182.266,173.227 182.668,171.805 183.066,170.465 183.469,169.211 183.867,168.047 184.27,166.973 184.668,165.992 185.07,165.109 185.473,164.324 185.871,163.641 186.273,163.059 186.672,162.582 187.074,162.211 187.473,161.945 187.875,161.789 188.277,161.742 188.676,161.801 189.078,161.973 189.477,162.254 189.879,162.648 190.281,163.148 190.68,163.758 191.082,164.477 191.48,165.301 191.883,166.234 192.281,167.273 192.684,168.414 193.086,169.656 193.484,171 193.887,172.441 194.285,173.977 194.688,175.605 195.086,177.324 195.488,179.133 195.891,181.02 196.289,182.992 196.691,185.039 197.09,187.16 197.492,189.352 197.891,191.609 198.293,193.93 198.695,196.309 199.094,198.738 199.496,201.219 199.895,203.742 200.297,206.309 200.695,208.91 201.098,211.539 201.5,214.195 201.898,216.875 202.301,219.57 202.699,222.273 203.102,224.984 203.5,227.695 203.902,230.402 204.305,233.102 204.703,235.785 205.105,238.453 205.504,241.094 205.906,243.703 206.305,246.281 206.707,248.82 207.109,251.316 207.508,253.762 207.91,256.156 208.309,258.492 208.711,260.766 209.113,262.973 209.512,265.109 209.914,267.172 210.313,269.152 210.715,271.055 211.113,272.867 211.516,274.59 211.918,276.223 212.316,277.758 212.719,279.191 213.117,280.523 213.52,281.75 213.918,282.871 214.32,283.879 214.723,284.777 215.121,285.563 215.523,286.234 215.922,286.785 216.324,287.219 216.723,287.535 217.125,287.73 217.527,287.805 217.926,287.758 218.328,287.59 218.727,287.301 219.129,286.891 219.527,286.363 219.93,285.715 220.332,284.945 220.73,284.063 221.133,283.063 221.531,281.945 221.934,280.719 222.332,279.379 222.734,277.934 223.137,276.379 223.535,274.723 223.938,272.965 224.336,271.109 224.738,269.16 225.137,267.117 225.539,264.988 225.941,262.777 226.34,260.484 226.742,258.113 227.141,255.668 227.543,253.16 227.945,250.582 228.344,247.949 228.746,245.258 229.145,242.516 229.547,239.73 229.945,236.902 230.348,234.039 230.75,231.145 231.148,228.223 231.551,225.277 231.949,222.316 232.352,219.344 232.75,216.367 233.152,213.387 233.555,210.41 233.953,207.445 234.355,204.488 234.754,201.555 235.156,198.641 235.555,195.758 235.957,192.906 236.359,190.094 236.758,187.32 237.16,184.598 237.559,181.922 237.961,179.305 238.359,176.746 238.762,174.25 239.164,171.82 239.563,169.465 239.965,167.184 240.363,164.98 240.766,162.859 241.164,160.82 241.566,158.871 241.969,157.012 242.367,155.246 242.77,153.578 243.168,152.004 243.57,150.531 243.973,149.16 244.371,147.895 244.773,146.73 245.172,145.672 245.574,144.723 245.973,143.879 246.375,143.141 246.777,142.516 247.176,141.996 247.578,141.586 247.977,141.281 248.379,141.086 248.777,140.996 249.18,141.012 249.582,141.133 249.98,141.359 250.383,141.684 250.781,142.109 251.184,142.629 251.582,143.246 251.984,143.957 252.387,144.758 252.785,145.645 253.188,146.617 253.586,147.672 253.988,148.805 254.387,150.012 254.789,151.289 255.191,152.633 255.59,154.043 255.992,155.508 256.391,157.031 256.793,158.605 257.191,160.23 257.594,161.891 257.996,163.594 258.395,165.328 258.797,167.09 259.195,168.879 259.598,170.684 259.996,172.504 260.398,174.332 260.801,176.168 261.199,178 261.602,179.832 262,181.648 262.402,183.453 262.805,185.234 263.203,186.996 263.605,188.723 264.004,190.418 264.406,192.078 264.805,193.691 265.207,195.258 265.609,196.77 266.008,198.227 266.41,199.625 266.809,200.957 267.211,202.219 267.609,203.41 268.012,204.527 268.414,205.563 268.813,206.516 269.215,207.383 269.613,208.16 270.016,208.848 270.414,209.438 270.816,209.93 271.219,210.324 271.617,210.617 272.02,210.809 272.418,210.895 272.82,210.871 273.219,210.742 273.621,210.5 274.023,210.152 274.422,209.691 274.824,209.121 275.223,208.441 275.625,207.648 276.023,206.742 276.426,205.73 276.828,204.605 277.227,203.371 277.629,202.031 278.027,200.582 278.43,199.031 278.828,197.375 279.23,195.617 279.633,193.762 280.031,191.809 280.434,189.758 280.832,187.621 281.234,185.391 281.637,183.078 282.035,180.684 282.438,178.207 282.836,175.656 283.238,173.035 283.637,170.344 284.039,167.59 284.441,164.777 284.84,161.91 285.242,158.992 285.641,156.023 286.043,153.016 286.441,149.973 286.844,146.895 287.246,143.793 287.645,140.664 288.047,137.52 288.445,134.363 288.848,131.199 289.246,128.031 289.648,124.867 290.051,121.711 290.449,118.57 290.852,115.441 291.25,112.34 291.652,109.266 292.051,106.223 292.453,103.219 292.855,100.258 293.254,97.3438 293.656,94.4844 294.055,91.6797 294.457,88.9375 294.855,86.2578 295.258,83.6523 295.66,81.1211 296.059,78.6641 296.461,76.293 296.859,74.0078 297.262,71.8125 297.664,69.707 298.063,67.7031 298.465,65.7969 298.863,63.9922 299.266,62.293 299.664,60.7031 300.066,59.2227 300.469,57.8555 300.867,56.6016 301.27,55.4648 301.668,54.4453 302.07,53.543 302.469,52.7656 302.871,52.1055 303.273,51.5703 303.672,51.1563 304.074,50.8633 304.473,50.6953 304.875,50.6523 305.273,50.7266 305.676,50.9258 306.078,51.2461 306.477,51.6836 306.879,52.2422 307.277,52.918 307.68,53.707 308.078,54.6094 308.48,55.625 308.883,56.75 309.281,57.9805 309.684,59.3125 310.082,60.75 310.484,62.2852 310.883,63.9141 311.285,65.6328 311.688,67.4414 312.086,69.3359 312.488,71.3086 312.887,73.3555 313.289,75.4805 313.688,77.6719 314.09,79.9258 314.492,82.2383 314.891,84.6094 315.293,87.0273 315.691,89.4922 316.094,92 316.496,94.543 316.895,97.1172 317.297,99.7188 317.695,102.34 318.098,104.977 318.496,107.629 318.898,110.285 319.301,112.941 319.699,115.598 320.102,118.242 320.5,120.875 320.902,123.492 321.301,126.086 321.703,128.648 322.105,131.184 322.504,133.68 322.906,136.133 323.305,138.543 323.707,140.902 324.105,143.207 324.508,145.457 324.91,147.641 325.309,149.762 325.711,151.813 326.109,153.789 326.512,155.691 326.91,157.512 327.313,159.254 327.715,160.906 328.113,162.477 328.516,163.953 328.914,165.336 329.316,166.629 329.715,167.824 330.117,168.922 330.52,169.918 330.918,170.816 331.32,171.613 331.719,172.309 332.121,172.898 332.52,173.391 332.922,173.773 333.324,174.059 333.723,174.238 334.125,174.316 334.523,174.293 334.926,174.172 335.328,173.949 335.727,173.629 336.129,173.215 336.527,172.703 336.93,172.102 337.328,171.406 337.73,170.625 338.133,169.762 338.531,168.813 338.934,167.785 339.332,166.68 339.734,165.5 340.133,164.254 340.535,162.941 340.938,161.566 341.336,160.133 341.738,158.645 342.137,157.105 342.539,155.52 342.938,153.891 343.34,152.227 343.742,150.531 344.141,148.805 344.543,147.059 344.941,145.289 345.344,143.508 345.742,141.715 346.145,139.922 346.547,138.125 346.945,136.336 347.348,134.559 347.746,132.793 348.148,131.051 348.547,129.332 348.949,127.645 349.352,125.988 349.75,124.375 350.152,122.805 350.551,121.281 350.953,119.813 351.352,118.402 351.754,117.051 352.156,115.77 352.555,114.555 352.957,113.414 353.355,112.355 353.758,111.375 354.16,110.48 354.559,109.676 354.961,108.961 355.359,108.344 355.762,107.824 356.16,107.406 356.563,107.09 356.965,106.879 357.363,106.773 357.766,106.781 358.164,106.898 358.566,107.133 358.965,107.477 359.367,107.938 359.77,108.516 360.168,109.211 360.57,110.023 360.969,110.957 361.371,112.004 361.77,113.172 362.172,114.457 362.574,115.859 362.973,117.375 363.375,119.008 363.773,120.754 364.176,122.613 364.574,124.582 364.977,126.66 365.379,128.844 365.777,131.133 366.18,133.523 366.578,136.016 366.98,138.602 367.379,141.281 367.781,144.051 368.184,146.906 368.582,149.844 368.984,152.863 369.383,155.957 369.785,159.125 370.188,162.355 370.586,165.652 370.988,169.008 371.387,172.418 371.789,175.875 372.188,179.379 372.59,182.922 372.992,186.504 373.391,190.113 373.793,193.746 374.191,197.402 374.594,201.074 374.992,204.754 375.395,208.441 375.797,212.125 376.195,215.809 376.598,219.477 376.996,223.133 377.398,226.77 377.797,230.379 378.199,233.957 378.602,237.5 379,241.004 379.402,244.465 379.801,247.871 380.203,251.227 380.602,254.523 381.004,257.758 381.406,260.922 381.805,264.016 382.207,267.035 382.605,269.973 383.008,272.832 383.406,275.602 383.809,278.281 384.211,280.867 384.609,283.355 385.012,285.746 385.41,288.035 385.813,290.219 386.211,292.297 386.613,294.266 387.016,296.125 387.414,297.871 387.816,299.504 388.215,301.023 388.617,302.422 389.02,303.707 389.418,304.875 389.82,305.922 390.219,306.855 390.621,307.668 391.02,308.363 391.422,308.941 391.824,309.402 392.223,309.75 392.625,309.98 393.023,310.098 393.426,310.105 393.824,310.004 394.227,309.793 394.629,309.477 395.027,309.055 395.43,308.535 395.828,307.918 396.23,307.203 396.629,306.398 397.031,305.504 397.434,304.523 397.832,303.465 398.234,302.324 398.633,301.113 399.035,299.828 399.434,298.477 399.836,297.066 400.238,295.598 400.637,294.074 401.039,292.504 401.438,290.891 401.84,289.234 402.238,287.547 402.641,285.828 403.043,284.086 403.441,282.32 403.844,280.543 404.242,278.754 404.645,276.957 405.047,275.164 405.445,273.371 405.848,271.59 406.246,269.824 406.648,268.074 407.047,266.348 407.449,264.652 407.852,262.988 408.25,261.359 408.652,259.777 409.051,258.238 409.453,256.75 409.852,255.313 410.254,253.938 410.656,252.625 411.055,251.379 411.457,250.199 411.855,249.098 412.258,248.07 412.656,247.121 413.059,246.254 413.461,245.473 413.859,244.781 414.262,244.176 414.66,243.668 415.063,243.25 415.461,242.93 415.863,242.707 416.266,242.586 416.664,242.563 417.066,242.641 417.465,242.82 417.867,243.105 418.266,243.492 418.668,243.98 419.07,244.57 419.469,245.266 419.871,246.063 420.27,246.961 420.672,247.961 421.07,249.055 421.473,250.25 421.875,251.543 422.273,252.926 422.676,254.406 423.074,255.973 423.477,257.629 423.879,259.367 424.277,261.191 424.68,263.09 425.078,265.07 425.48,267.117 425.879,269.238 426.281,271.426 426.684,273.672 427.082,275.977 427.484,278.336 427.883,280.746 428.285,283.199 428.684,285.695 429.086,288.23 429.488,290.797 429.887,293.387 430.289,296.004 430.688,298.637 431.09,301.281 431.488,303.938 431.891,306.598 432.293,309.254 432.691,311.902 433.094,314.543 433.492,317.164 433.895,319.762 434.293,322.336 434.695,324.879 435.098,327.387 435.496,329.852 435.898,332.273 436.297,334.641 436.699,336.957 437.098,339.211 437.5,341.402 437.902,343.523 438.301,345.574 438.703,347.547 439.102,349.438 439.504,351.246 439.902,352.969 440.305,354.598 440.707,356.129 441.105,357.566 441.508,358.898 441.906,360.133 442.309,361.254 442.711,362.27 443.109,363.172 443.512,363.965 443.91,364.637 444.313,365.195 444.711,365.633 445.113,365.953 445.516,366.152 445.914,366.23 446.316,366.184 446.715,366.016 447.117,365.723 447.516,365.309 447.918,364.773 448.32,364.117 448.719,363.336 449.121,362.438 449.52,361.418 449.922,360.281 450.32,359.027 450.723,357.66 451.125,356.18 451.523,354.586 451.926,352.891 452.324,351.086 452.727,349.18 453.125,347.172 453.527,345.07 453.93,342.871 454.328,340.586 454.73,338.215 455.129,335.762 455.531,333.227 455.93,330.621 456.332,327.945 456.734,325.199 457.133,322.395 457.535,319.535 457.934,316.621 458.336,313.66 458.734,310.656 459.137,307.613 459.539,304.539 459.938,301.438 460.34,298.313 460.738,295.168 461.141,292.012 461.543,288.848 461.941,285.68 462.344,282.516 462.742,279.359 463.145,276.215 463.543,273.086 463.945,269.984 464.348,266.906 464.746,263.863 465.148,260.855 465.547,257.891 465.949,254.969 466.348,252.102 466.75,249.289 467.152,246.535 467.551,243.848 467.953,241.223 468.352,238.672 468.754,236.199 469.152,233.801 469.555,231.488 469.957,229.262 470.355,227.121 470.758,225.074 471.156,223.121 471.559,221.262 471.957,219.508 472.359,217.852 472.762,216.297 473.16,214.852 473.563,213.508 473.961,212.277 474.363,211.152 474.762,210.137 475.164,209.234"/>
</g>
<clipPath id="cp00560417">
  <polygon points="0,417 560,417 560,0 0,0"/>
</clipPath>
<g clip-path="url(#cp00560417)">
<polygon fill="#ffffff" points="518.398,35.2813 404.875,35.2813 404.875,49.4727"/>
<polygon fill="#ffffff" points="404.875,49.4727 518.398,49.4727 518.398,35.2813"/>
<polyline fill="none" stroke="#262626" stroke-width="0.5" stroke-dasharray="16,0" points="404.875,35.2813 518.398,35.2813"/>
<polyline fill="none" stroke="#262626" stroke-width="0.5" stroke-dasharray="16,0" points="404.875,49.4727 404.875,35.2813"/>
<polyline fill="none" stroke="#262626" stroke-width="0.5" stroke-dasharray="16,0" points="518.398,49.4727 518.398,35.2813"/>
<text fill="#000000" x="432.207" y="42.3789" font-size="10" text-anchor="start" baseline-shift="-5" font-family="Helvetica">analytical signal</text>
<polyline fill="none" stroke="#00ff00" stroke-width="0.5" points="407.75,42.375 429.332,42.375"/>
<polyline fill="none" stroke="#262626" stroke-width="0.5" stroke-dasharray="16,0" points="404.875,49.4727 518.398,49.4727"/>
</g>
</g>
</svg>
